<?xml version="1.0" encoding="utf-8"?>
<!-- Generator: Adobe Illustrator 15.0.0, SVG Export Plug-In  -->
<!DOCTYPE svg PUBLIC "-//W3C//DTD SVG 1.1//EN" "http://www.w3.org/Graphics/SVG/1.1/DTD/svg11.dtd" [
	<!ENTITY ns_flows "http://ns.adobe.com/Flows/1.0/">
]>
<svg version="1.1"
	 xmlns="http://www.w3.org/2000/svg" xmlns:xlink="http://www.w3.org/1999/xlink" xmlns:a="http://ns.adobe.com/AdobeSVGViewerExtensions/3.0/"
	 x="0px" y="0px" width="376px" height="271px" viewBox="0 0 376 271" overflow="visible" enable-background="new 0 0 376 271"
	 xml:space="preserve">
<defs>
</defs>
<path fill="#004E91" d="M210.389,39.367c-9.188,0-15.201,2.883-15.201,12.289c0,5.172,2.738,9.004,15.252,9.516
	c7.586,0.311,13.986,1.451,19.211,5.023c6.443,4.406,9.141,11.643,9.244,18.426c0.135,8.771-3.801,19.852-19.525,25.184
	c-8.895,3.016-19.189,3.266-29.838,3.266c-1.3,0-2.598-0.104-3.895-0.109c-10.668-0.049-17.97-2.027-17.97-2.027
	c-7.216-1.451-16.85-4.658-22.628-12.102c-9.46-12.186-9.712-28.701-9.453-37.535c0.06-2.031,0.192-4.127,0.409-6.281
	c1.483-14.723,6.953-31.365,14.714-44.531c-20.255,12.473-33.76,34.848-33.76,60.381c0,39.139,31.728,70.867,70.866,70.867
	c39.138,0,70.867-31.728,70.867-70.867c0-5.227-0.572-10.318-1.646-15.225C256.223,55.119,233.34,39.367,210.389,39.367z"/>
<path fill="#004E91" d="M159.162,16.986c-4.357,10.91-7.324,20.951-8.926,32.596c-1.748,12.711-0.866,21.619,0.206,25.529
	c5.006,18.244,12.056,22.959,39.089,22.959c26.9,0,34.363-3.391,34.363-13.949c0-2.871-2.07-8.871-16.279-8.949
	c-9.004-0.049-28.744-2.633-27.428-25.516c0.797-13.842,11.877-22.99,24.762-22.938c28.15,0.117,46.352,15.596,48.441,17.244
	C242.795,18.166,217.43,0,187.815,0c-7.583,0-14.883,1.195-21.732,3.4C165.416,4.354,162.509,8.6,159.162,16.986z"/>
<path fill="#004E91" d="M0,269.376v-71.365h17.333v57.67l25.572,0.107v13.588H0z"/>
<path fill="#004E91" d="M68.05,271.087c-8.56,0-15.085-1.926-20.542-4.492l0.749-14.873c5.885,3.531,12.411,5.457,18.617,5.457
	c8.238,0,10.913-3.639,10.913-8.025c0-3.959-3.638-6.42-8.987-8.238l-3.103-1.07c-12.732-4.172-18.189-10.592-18.189-22.682
	c0-11.77,8.88-20.865,25.678-20.865c7.918,0,14.123,1.713,18.831,3.639l-0.749,14.551c-3.424-1.711-9.736-4.387-17.012-4.387
	c-6.206,0-9.095,2.676-9.095,6.955c0,3.959,2.889,6.205,8.987,8.238l3.103,0.963c12.198,4.066,18.189,10.271,18.189,21.934
	C95.441,261.138,86.774,271.087,68.05,271.087z"/>
<path fill="#004E91" d="M154.184,269.376l-8.024-20.223c-1.498-3.852-3.317-5.885-6.206-5.885h-4.922v26.107h-17.333v-71.365h26.321
	c15.407,0,26.642,5.242,26.642,21.078c0,10.164-7.062,16.049-13.803,18.402v0.107c0,0,3.531,0.855,6.312,7.275l10.807,24.502
	H154.184z M142.736,211.599h-7.704v18.189h7.276c7.489,0,10.913-3.746,10.913-9.309
	C153.221,214.808,150.439,211.599,142.736,211.599z"/>
<path fill="#004E91" d="M223.945,247.121h-31.883v0.643c0,4.922,2.781,10.059,11.77,10.059c6.098,0,11.875-1.605,16.689-3.746
	l0.75,12.84c-4.066,2.246-10.807,4.066-19.473,4.066c-20.971,0-26.32-10.486-26.32-28.141c0-17.119,6.74-28.566,26.105-28.566
	c17.227,0,22.576,10.164,22.576,26.533C224.16,242.306,223.945,247.121,223.945,247.121z M200.836,225.294
	c-6.42,0-9.096,5.67-9.096,11.127h16.799C208.539,231.5,207.576,225.294,200.836,225.294z"/>
<path fill="#004E91" d="M252.121,271.087c-10.807,0-15.834-5.562-15.729-16.369l0.107-25.357h-8.807v-13.482h8.807l0.107-13.16
	l16.904-1.818l-0.105,14.979h12.518v13.482h-12.518l-0.107,22.041c0,4.814,1.711,6.205,5.562,6.205c2.891,0,6.314-1.07,6.314-1.07
	l0.748,12.09C265.924,268.626,259.932,271.087,252.121,271.087z"/>
<path fill="#004E91" d="M304.047,269.376l-0.855-6.42h-0.107c0,0-3.852,8.025-15.941,8.025c-10.594,0-16.479-6.207-16.479-16.156
	c0-12.412,10.486-17.869,24.289-17.869c3.852,0,6.848,0.322,6.848,0.322v-3.531c0-4.709-3.852-6.312-9.309-6.312
	c-6.1,0-11.557,1.604-16.799,3.744l-0.748-12.84c5.99-2.781,13.373-4.064,20.436-4.064c13.16,0,23.432,2.889,23.432,19.258v35.844
	H304.047z M301.801,246.908c0,0-1.498-0.107-3.746-0.107c-4.707,0-10.484,1.498-10.484,6.74c0,3.639,2.461,5.457,5.67,5.457
	c4.494,0,8.561-3.959,8.561-10.271V246.908z"/>
<path fill="#004E91" d="M338.609,211.814c-5.564,0-10.164-4.494-10.164-10.059c0-5.67,4.6-10.164,10.164-10.164
	c5.562,0,10.057,4.494,10.057,10.164C348.666,207.32,344.172,211.814,338.609,211.814z M330.156,269.376v-53.498h16.904v53.498
	H330.156z"/>
<path fill="#004E91" d="M358.617,269.376v-75.432h17.012v75.432H358.617z"/>
</svg>
