<?xml version="1.0" encoding="utf-8"?>
<!-- Generator: Adobe Illustrator 15.0.0, SVG Export Plug-In  -->
<!DOCTYPE svg PUBLIC "-//W3C//DTD SVG 1.1//EN" "http://www.w3.org/Graphics/SVG/1.1/DTD/svg11.dtd" [
	<!ENTITY ns_flows "http://ns.adobe.com/Flows/1.0/">
]>
<svg version="1.1"
	 xmlns="http://www.w3.org/2000/svg" xmlns:xlink="http://www.w3.org/1999/xlink" xmlns:a="http://ns.adobe.com/AdobeSVGViewerExtensions/3.0/"
	 x="0px" y="0px" width="320px" height="314px" viewBox="0 0 320 314" overflow="visible" enable-background="new 0 0 320 314"
	 xml:space="preserve">
<defs>
</defs>
<linearGradient id="SVGID_1_" gradientUnits="userSpaceOnUse" x1="-369.3574" y1="400.0742" x2="-335.012" y2="437.9041" gradientTransform="matrix(-0.352 -0.936 0.936 -0.352 -308.5313 -116.3337)">
	<stop  offset="0.0182" style="stop-color:#204B23"/>
	<stop  offset="0.5879" style="stop-color:#25773B"/>
	<stop  offset="1" style="stop-color:#7AC143"/>
</linearGradient>
<path fill="url(#SVGID_1_)" d="M172.972,117.263c0,0,0.6-13.255,1.966-16.694c1.365-3.438,2.611-10.022,4.358-11.743
	c1.746-1.72,4.277-3.47,6.342-7.17c2.065-3.703,3.604-10.928,5.697-13.843c2.095-2.916,8.932-11.602,10.241-12.361
	c1.311-0.758,8.149-7.319,11.032-8.137c2.883-0.819,6.789,0.371,8.684,2.582c1.896,2.212,3.969,9.144,3.014,12.961
	c-0.959,3.816-4.678,13.725-7.123,15.709c-2.445,1.982-3.111,5.158-5.82,6.442c-2.707,1.283-4.656,3.878-5.994,5.977
	c-1.339,2.098-2.703,5.537-4.77,7.112c-2.067,1.575-7.133,5.075-8.937,7.349c-1.804,2.274-11.293,9.566-11.817,10.296
	c-0.523,0.729-1.057,5.316-1.057,5.316l-2.812,0.657L172.972,117.263z"/>
<linearGradient id="SVGID_2_" gradientUnits="userSpaceOnUse" x1="-381.7358" y1="393.7412" x2="-350.3767" y2="432.3179" gradientTransform="matrix(-0.352 -0.936 0.936 -0.352 -308.5313 -116.3337)">
	<stop  offset="0.0182" style="stop-color:#204B23"/>
	<stop  offset="0.5879" style="stop-color:#25773B"/>
	<stop  offset="1" style="stop-color:#7AC143"/>
</linearGradient>
<path fill="url(#SVGID_2_)" d="M175.683,118.104c0,0,11.075-23.576,15.324-27.833c4.248-4.257,9.889-15.419,15.069-20.027
	C211.257,65.638,218,48.211,218,48.211s4.225,1.337,5.164,7.364c0.938,6.031,1.582,10.572,1.846,11.272
	c0.262,0.698-0.172,3.786-2.938,5.624c-2.767,1.839-3.143,4.373-3.17,5.713c-0.029,1.34-3.958,3.616-5.094,4.841
	c-1.134,1.225-3.843,2.51-4.336,4.024c-0.494,1.515-2.299,1.662-3.201,2.799s-2.531,3.876-2.531,3.876l-6.724,5.455l-16.439,19.211
	l-1.395,4.779l-3.205-1.454L175.683,118.104z"/>
<linearGradient id="SVGID_3_" gradientUnits="userSpaceOnUse" x1="-272.0869" y1="-167.8013" x2="-214.3593" y2="-104.2171" gradientTransform="matrix(0.4184 -0.6743 -1.3779 -0.0872 -22.0468 -52.1412)">
	<stop  offset="0.3455" style="stop-color:#25773B"/>
	<stop  offset="1" style="stop-color:#7AC143"/>
</linearGradient>
<path fill="url(#SVGID_3_)" d="M155.335,171.873c0,0-3.525-14.588-7.366-18.056c-3.838-3.468-7.883-10.465-12.371-11.922
	c-4.489-1.458-10.879-2.74-16.449-6.317c-5.566-3.577-10.414-11.212-15.93-13.907c-5.516-2.694-23.393-10.566-26.679-11.068
	c-3.283-0.5-20.833-6.007-27.926-6.163c-7.092-0.154-16.336,2.19-20.571,5.147c-4.227,2.957-8.151,11.211-5.239,15.206
	s13.452,14.043,19.669,15.609c6.215,1.566,8.326,4.922,15.067,5.644c6.743,0.719,11.859,3.095,15.422,5.08
	c3.559,1.982,7.397,5.449,12.637,6.661c5.24,1.211,18.024,3.779,22.737,5.836c4.716,2.058,28.782,7.684,30.161,8.355
	c1.377,0.676,3.389,5.64,3.389,5.64l6.892-0.004L155.335,171.873z"/>
<linearGradient id="SVGID_4_" gradientUnits="userSpaceOnUse" x1="113.814" y1="162.7686" x2="307.0911" y2="106.2914">
	<stop  offset="0.0182" style="stop-color:#204B23"/>
	<stop  offset="0.5879" style="stop-color:#25773B"/>
	<stop  offset="1" style="stop-color:#7AC143"/>
</linearGradient>
<path fill="url(#SVGID_4_)" d="M199.511,143.884c0,0,2.925-1.099,2.696-3.753c-0.227-2.653,0.214-3.761,2.837-5.434
	c2.625-1.671,2.471-6.407,6.069-8.445c3.601-2.039,6.524-3.139,8.212-5.484c1.686-2.346,4.486-6.737,8.416-6.761
	c3.929-0.022,8.203-2.999,10.863-5.711c2.662-2.714,8.578-4.511,12.34-4.298c3.761,0.214,8.906-2.493,11.025-3.462
	c2.119-0.967,6.715,0.557,11.012,1.51s7.163-3.035,12.199-2.617c5.037,0.417,10.044-0.608,13.732,1.684
	c3.688,2.295,5.732,3.41,8.52,3.987c2.785,0.579,8.182,4.458,6.695,8.015c-1.489,3.555-0.691,5.909-4.656,6.973
	c-3.967,1.062-15.381-0.382-16.6,2.304c-1.215,2.682-9.185,5.851-11.912,8.16c-2.727,2.309-7.588-0.828-10.351,2.522
	c-2.765,3.35-10.726,4.032-13.856,6.408s-5.549,2.772-9.348,3.6c-3.797,0.829-3.159,0.933-9.143,2.326
	c-5.98,1.393-10.381,1.078-11.655,0.872c-1.276-0.204-6.173-2.301-7.927-0.357c-1.751,1.942-3.767,2.273-5.849,2.199
	c-2.083-0.073-5.741-0.923-7.661,1.255c-1.923,2.177-5.213,2.302-6.086,2.031c-0.873-0.271-8.094-0.125-8.094-0.125l0.813-2.616
	C191.805,148.666,197.282,147.976,199.511,143.884z"/>
<linearGradient id="SVGID_5_" gradientUnits="userSpaceOnUse" x1="185.1362" y1="154.9712" x2="323.1906" y2="87.1992">
	<stop  offset="0.0182" style="stop-color:#204B23"/>
	<stop  offset="0.5879" style="stop-color:#25773B"/>
	<stop  offset="1" style="stop-color:#7AC143"/>
</linearGradient>
<path fill="url(#SVGID_5_)" d="M194.642,148.926l-0.998-0.69c1.801-0.561,4.471-1.788,5.867-4.352c0,0,2.925-1.099,2.696-3.753
	c-0.227-2.653,0.214-3.761,2.837-5.434c2.625-1.671,2.471-6.407,6.069-8.445c3.601-2.039,6.524-3.139,8.212-5.484
	c1.686-2.346,4.486-6.737,8.416-6.761c3.929-0.022,8.203-2.999,10.863-5.711c2.662-2.714,8.578-4.511,12.34-4.298
	c3.761,0.214,8.906-2.493,11.025-3.462c2.119-0.967,6.715,0.557,11.012,1.51s7.163-3.035,12.199-2.617
	c5.037,0.417,10.044-0.608,13.732,1.684c3.688,2.295,5.732,3.41,8.52,3.987c2.66,0.554,7.688,4.117,6.837,7.534
	c-0.606,0.073-1.521,0.235-1.992,0.575c-0.74,0.535-20.563-2.326-22.8-1.443c-2.236,0.885-28.326,10.952-28.58,11.305
	c-0.253,0.351-16.166,3.683-20.719,4.324c-4.552,0.641-32.333,14.297-35.023,15.565
	C202.464,144.229,194.642,148.926,194.642,148.926z"/>
<linearGradient id="SVGID_6_" gradientUnits="userSpaceOnUse" x1="-786.9858" y1="-226.5771" x2="-564.7648" y2="-291.512" gradientTransform="matrix(-0.5914 -0.8064 -0.8064 0.5914 -452.485 -262.2061)">
	<stop  offset="0.0182" style="stop-color:#204B23"/>
	<stop  offset="0.5879" style="stop-color:#25773B"/>
	<stop  offset="1" style="stop-color:#7AC143"/>
</linearGradient>
<path fill="url(#SVGID_6_)" d="M154.887,146.126c0,0-0.969-3.459,1.646-5.052c2.616-1.595,3.343-2.757,3.11-6.325
	c-0.236-3.571,4.26-6.647,3.702-11.37c-0.557-4.724-1.525-8.184-0.498-11.343s3.197-8.742,0.545-12.399
	c-2.65-3.658-2.795-9.646-2.091-13.955c0.706-4.315-1.65-11.021-4.405-14.363c-2.755-3.341-3.746-9.952-4.289-12.578
	c-0.542-2.621-5.081-5.847-8.885-9.183c-3.805-3.336-2.057-8.703-5.868-13.09c-3.812-4.387-6.266-9.727-10.901-11.587
	c-4.633-1.858-7.058-2.996-9.489-5.188c-2.431-2.189-9.696-4.557-11.982-0.76c-2.284,3.8-5.008,4.661-3.299,9.061
	c1.712,4.398,10.811,14.001,9.151,16.954c-1.66,2.951,0.821,12.494,0.533,16.593c-0.286,4.1,5.928,6.474,4.698,11.313
	c-1.225,4.842,3.556,12.686,3.481,17.204s1.203,7.03,3.017,11.115c1.814,4.085,1.285,3.562,4.062,10.057
	c2.774,6.493,6.059,10.359,7.115,11.4c1.058,1.045,6.331,4.159,5.722,7.106c-0.611,2.944,0.454,5.039,1.937,6.919
	c1.485,1.88,4.76,4.695,4.047,7.955c-0.712,3.264,1.41,6.399,2.254,7.023s5.619,7.42,5.619,7.42l1.873-2.533
	C155.693,156.521,152.609,150.974,154.887,146.126z"/>
<linearGradient id="SVGID_7_" gradientUnits="userSpaceOnUse" x1="-704.9829" y1="-235.5435" x2="-546.2547" y2="-313.4644" gradientTransform="matrix(-0.5914 -0.8064 -0.8064 0.5914 -452.485 -262.2061)">
	<stop  offset="0.0182" style="stop-color:#204B23"/>
	<stop  offset="0.5879" style="stop-color:#25773B"/>
	<stop  offset="1" style="stop-color:#7AC143"/>
</linearGradient>
<path fill="url(#SVGID_7_)" d="M153.524,154.067l1.318,0.457c-0.704-2.051-1.381-5.359,0.045-8.398c0,0-0.969-3.459,1.646-5.052
	c2.616-1.595,3.343-2.757,3.11-6.325c-0.236-3.571,4.26-6.647,3.702-11.37c-0.557-4.724-1.525-8.184-0.498-11.343
	s3.197-8.742,0.545-12.399c-2.65-3.658-2.795-9.646-2.091-13.955c0.706-4.315-1.65-11.021-4.405-14.363
	c-2.755-3.341-3.746-9.952-4.289-12.578c-0.542-2.621-5.081-5.847-8.885-9.183c-3.805-3.336-2.057-8.703-5.868-13.09
	c-3.812-4.387-6.266-9.727-10.901-11.587c-4.633-1.858-7.058-2.996-9.489-5.188c-2.322-2.091-9.044-4.329-11.633-1.217
	c0.343,0.611,0.814,1.569,0.821,2.237c0.005,1.053,16.139,17.484,16.84,20.158c0.7,2.674,9.105,33.712,8.952,34.187
	c-0.154,0.472,7.577,17.491,10.079,22.147c2.5,4.657,8.729,39.7,9.382,43.059C152.559,143.622,153.524,154.067,153.524,154.067z"/>
<linearGradient id="SVGID_8_" gradientUnits="userSpaceOnUse" x1="145.0044" y1="111.0669" x2="8.6273" y2="54.1734" gradientTransform="matrix(0.9918 0.1281 -0.1281 0.9918 10.1261 33.9662)">
	<stop  offset="0.0182" style="stop-color:#204B23"/>
	<stop  offset="0.5879" style="stop-color:#25773B"/>
	<stop  offset="1" style="stop-color:#7AC143"/>
</linearGradient>
<path fill="url(#SVGID_8_)" d="M126.806,155.358c0,0,14.402,8.012,28.243,15.392c-0.905-3.456-3.879-14.044-7.079-16.933
	c-3.838-3.468-7.883-10.465-12.371-11.922c-4.489-1.458-10.879-2.74-16.449-6.317c-5.566-3.577-10.414-11.212-15.93-13.907
	c-5.516-2.694-23.393-10.566-26.679-11.068c-3.283-0.5-20.833-6.007-27.926-6.163c-7.092-0.154-16.336,2.19-20.571,5.147
	c-1.792,1.254-3.523,3.462-4.71,5.893C51.806,116.907,126.806,155.358,126.806,155.358z"/>
<linearGradient id="SVGID_9_" gradientUnits="userSpaceOnUse" x1="-287.4448" y1="-16.3804" x2="-229.7125" y2="47.209" gradientTransform="matrix(-0.1256 -0.7778 1.3298 0.3912 226.2947 -58.9813)">
	<stop  offset="0.3455" style="stop-color:#25773B"/>
	<stop  offset="1" style="stop-color:#7AC143"/>
</linearGradient>
<path fill="url(#SVGID_9_)" d="M173.917,161.947c0,0,9.107-12.51,14.092-14.451c4.986-1.944,11.564-7.136,16.361-6.963
	c4.799,0.17,11.315,1.156,17.972-0.294c6.651-1.452,14.239-6.969,20.495-7.609c6.254-0.638,26.186-1.903,29.471-1.246
	c3.285,0.656,21.969,1.503,28.702,3.794c6.727,2.29,14.485,7.67,17.29,11.906c2.798,4.232,3.209,13.343-1.115,16.1
	c-4.32,2.757-18.217,8.588-24.684,7.927c-6.463-0.663-9.779,1.769-16.402,0.132c-6.623-1.639-12.377-1.163-16.514-0.519
	c-4.133,0.643-9.115,2.585-14.522,1.926c-5.407-0.662-18.444-2.637-23.69-2.321c-5.249,0.317-30.105-2.658-31.669-2.499
	c-1.563,0.163-5.424,4.14-5.424,4.14l-6.479-2.37L173.917,161.947z"/>
<linearGradient id="SVGID_10_" gradientUnits="userSpaceOnUse" x1="-67.9751" y1="136.7559" x2="-204.3597" y2="79.8593" gradientTransform="matrix(-0.9831 -0.2201 -0.2733 0.9767 162.7946 10.1517)">
	<stop  offset="0.0182" style="stop-color:#204B23"/>
	<stop  offset="0.5879" style="stop-color:#25773B"/>
	<stop  offset="1" style="stop-color:#7AC143"/>
</linearGradient>
<path fill="url(#SVGID_10_)" d="M207.291,156.213c0,0-16.719,2.589-32.657,4.777c2.222-2.941,9.221-11.876,13.376-13.494
	c4.986-1.944,11.564-7.136,16.361-6.963c4.799,0.17,11.315,1.156,17.972-0.294c6.651-1.452,14.239-6.969,20.495-7.609
	c6.254-0.638,26.186-1.903,29.471-1.246c3.285,0.656,21.969,1.503,28.702,3.794c6.727,2.29,14.485,7.67,17.29,11.906
	c1.187,1.794,1.939,4.467,2.088,7.159C293.057,145.808,207.291,156.213,207.291,156.213z"/>
<linearGradient id="SVGID_11_" gradientUnits="userSpaceOnUse" x1="163.021" y1="114.0938" x2="191.4688" y2="-5.8327">
	<stop  offset="0" style="stop-color:#25773B"/>
	<stop  offset="1" style="stop-color:#7AC143"/>
</linearGradient>
<path fill="url(#SVGID_11_)" d="M162.635,157.557c0,0-10.828-12.976-11.557-18.773c-0.732-5.798-4.48-14.147-3.021-19.183
	c1.458-5.036,4.237-11.677,4.473-19.114c0.232-7.432-3.59-16.937-2.603-23.733c0.988-6.795,4.951-28.242,6.524-31.55
	c1.568-3.302,7.439-22.868,11.658-29.39c4.215-6.516,11.979-13.302,17.213-15.146c5.227-1.836,14.986,0.153,16.756,5.467
	c1.77,5.311,4.246,21.581,1.826,28.255c-2.423,6.669-0.73,10.829-4.227,17.409c-3.5,6.579-4.525,12.8-4.944,17.354
	c-0.419,4.549,0.312,10.344-1.825,15.896c-2.141,5.551-7.701,18.833-8.766,24.474c-1.062,5.646-10.827,31.182-11.076,32.881
	c-0.244,1.698,2.941,6.846,2.941,6.846l-4.234,6.231L162.635,157.557z"/>
<linearGradient id="SVGID_12_" gradientUnits="userSpaceOnUse" x1="262.7114" y1="468.1738" x2="113.7579" y2="406.0338" gradientTransform="matrix(-0.4531 0.8998 0.8807 0.5031 -129.2324 -334.6514)">
	<stop  offset="0.0182" style="stop-color:#204B23"/>
	<stop  offset="0.5879" style="stop-color:#25773B"/>
	<stop  offset="1" style="stop-color:#7AC143"/>
</linearGradient>
<path fill="url(#SVGID_12_)" d="M165.443,120.682c0,0-1.707,18.397-3.632,35.863c-2.523-3.139-10.125-12.93-10.733-17.762
	c-0.732-5.798-4.48-14.147-3.021-19.183c1.458-5.036,4.237-11.677,4.473-19.114c0.232-7.432-3.59-16.937-2.603-23.733
	c0.988-6.795,4.951-28.242,6.524-31.55c1.568-3.302,7.439-22.868,11.658-29.39c4.215-6.516,11.979-13.302,17.213-15.146
	c2.215-0.778,5.248-0.864,8.137-0.306C177.25,27.066,165.443,120.682,165.443,120.682z"/>
<linearGradient id="SVGID_13_" gradientUnits="userSpaceOnUse" x1="116.0391" y1="183.0059" x2="26.9303" y2="251.6154">
	<stop  offset="0" style="stop-color:#25773B"/>
	<stop  offset="1" style="stop-color:#7AC143"/>
</linearGradient>
<path fill="url(#SVGID_13_)" d="M137.78,176.372c0,0-3.765,2.511-6.693,0c-2.929-2.509-4.602-2.927-8.785-1.255
	c-4.184,1.673-9.623-2.51-15.062,0c-5.438,2.511-9.203,5.021-13.387,5.021c-4.183,0-11.713-0.418-15.06,4.185
	c-3.347,4.601-10.459,7.11-15.897,7.948c-5.438,0.835-12.551,6.275-15.479,10.877c-2.928,4.603-10.458,8.367-13.387,10.04
	c-2.929,1.674-5.02,8.366-7.53,14.224s-9.622,5.857-13.388,12.132c-3.765,6.275-9.203,11.296-9.622,17.571
	c-0.418,6.276-0.837,9.623-2.51,13.39c-1.673,3.764-1.673,13.387,3.765,14.641c5.438,1.255,7.53,4.185,12.132,0.419
	s12.55-18.407,16.734-17.57c4.183,0.836,14.642-5.856,19.663-7.113c5.019-1.255,5.438-9.623,11.713-10.041
	c6.276-0.418,13.806-9.204,19.245-10.877c5.438-1.674,7.948-4.183,12.131-7.949c4.184-3.766,3.765-2.928,10.459-8.785
	s10.041-11.295,10.877-12.969s2.51-9.203,6.275-9.622c3.766-0.418,5.857-2.51,7.53-5.021c1.674-2.511,3.766-7.529,7.949-7.948
	c4.184-0.418,7.112-4.184,7.53-5.438c0.419-1.255,6.694-9.622,6.694-9.622l-3.766-1.255
	C149.913,171.353,144.474,177.209,137.78,176.372z"/>
<linearGradient id="SVGID_14_" gradientUnits="userSpaceOnUse" x1="206.9946" y1="219.8877" x2="264.727" y2="283.4771">
	<stop  offset="0.0182" style="stop-color:#204B23"/>
	<stop  offset="0.5879" style="stop-color:#25773B"/>
	<stop  offset="1" style="stop-color:#7AC143"/>
</linearGradient>
<path fill="url(#SVGID_14_)" d="M175.431,166.751c0,0,20.5,8.785,25.102,12.969s14.225,10.04,15.898,13.805
	c1.672,3.767,2.928,8.785,7.529,14.226c4.603,5.438,15.061,12.131,18.408,17.151c3.346,5.021,12.968,20.917,13.387,23.428
	c0.418,2.51,6.693,17.153,6.275,22.175c-0.419,5.019-4.602,10.458-9.204,12.131s-16.733,0.837-22.173-2.929
	c-5.438-3.765-18.826-15.478-20.499-20.5c-1.673-5.02-6.274-7.949-6.692-12.969c-0.42-5.02-3.348-9.622-5.857-12.969
	c-2.511-3.347-7.111-7.53-8.367-11.715c-1.256-4.184-3.766-14.223-6.275-18.406s-8.367-23.428-9.203-24.684
	c-0.837-1.255-7.74-4.811-7.74-4.811l0.627-4.811L175.431,166.751z"/>
<linearGradient id="SVGID_15_" gradientUnits="userSpaceOnUse" x1="186.1851" y1="209.2422" x2="238.8971" y2="274.0863">
	<stop  offset="0.0182" style="stop-color:#204B23"/>
	<stop  offset="0.5879" style="stop-color:#25773B"/>
	<stop  offset="1" style="stop-color:#7AC143"/>
</linearGradient>
<path fill="url(#SVGID_15_)" d="M172.504,170.516c0,0,30.538,31.376,34.722,40.58s18.408,24.684,22.592,35.561
	s27.611,31.796,27.611,31.796s-4.603,5.855-14.643,3.765c-10.041-2.092-17.57-3.765-18.826-3.765c-1.255,0-5.857-2.511-7.111-7.948
	c-1.256-5.439-5.021-7.531-7.112-8.367c-2.092-0.838-3.347-8.37-4.603-10.88c-1.254-2.509-1.672-7.53-3.764-9.203
	c-2.094-1.675-1.256-4.602-2.512-6.693c-1.254-2.092-4.602-6.275-4.602-6.275l-4.602-13.807l-20.498-37.232l-6.694-5.02l4.183-4.184
	L172.504,170.516z"/>
<path opacity="0.39" fill="#3A793A" d="M172.504,170.516c0,0,5.019,1.256,7.11,5.021c2.093,3.765,4.603,5.856,4.603,5.856
	l4.603,5.438c0,0,15.479,5.439,19.662,9.204s9.621,4.184,9.621,4.184l-5.855-8.367C212.248,191.852,182.544,162.985,172.504,170.516
	z"/>
<linearGradient id="SVGID_16_" gradientUnits="userSpaceOnUse" x1="170.6206" y1="178.8018" x2="265.1772" y2="178.8018">
	<stop  offset="0" style="stop-color:#25773B"/>
	<stop  offset="1" style="stop-color:#7AC143"/>
</linearGradient>
<path fill="url(#SVGID_16_)" d="M175.85,165.077c0,0,10.877-2.092,15.897-6.275s26.774-7.53,37.652-5.438
	c10.877,2.092,24.682,9.622,29.283,14.224c4.603,4.603,7.949,7.53,5.857,12.969s-4.184,9.623-3.347,16.317
	c0.837,6.692-5.438,8.366-10.877,7.947s-13.388-4.184-18.408-2.929c-5.02,1.256-9.203-0.836-12.132-3.346
	c-2.928-2.511-3.346,0.836-7.111-1.673c-3.766-2.511-5.021-3.768-10.877-6.276c-5.857-2.51-12.133-4.603-12.133-6.274
	c0-1.674,2.929-2.511-1.674-4.185c-4.601-1.674-5.438-2.929-7.111-7.111c-1.674-4.184-10.25-4.603-10.25-4.603l0.21-3.974
	L175.85,165.077z"/>
<linearGradient id="SVGID_17_" gradientUnits="userSpaceOnUse" x1="111.8257" y1="176.9727" x2="-138.7664" y2="376.5263">
	<stop  offset="0" style="stop-color:#25773B"/>
	<stop  offset="1" style="stop-color:#7AC143"/>
</linearGradient>
<path fill="url(#SVGID_17_)" d="M147.821,174.908l0.033-1.758c-2.18,1.644-5.88,3.747-10.074,3.222c0,0-3.765,2.511-6.693,0
	c-2.929-2.509-4.602-2.927-8.785-1.255c-4.184,1.673-9.623-2.51-15.062,0c-5.438,2.511-9.203,5.021-13.387,5.021
	c-4.183,0-11.713-0.418-15.06,4.185c-3.347,4.601-10.459,7.11-15.897,7.948c-5.438,0.835-12.551,6.275-15.479,10.877
	c-2.928,4.603-10.458,8.367-13.387,10.04c-2.929,1.674-5.02,8.366-7.53,14.224s-9.622,5.857-13.388,12.132
	c-3.765,6.275-9.203,11.296-9.622,17.571c-0.418,6.276-0.837,9.623-2.51,13.39c-1.599,3.595-1.658,12.517,3.08,14.403
	c0.599-0.651,1.561-1.589,2.359-1.854c1.254-0.418,14.642-26.147,17.57-28.03c2.929-1.882,36.815-24.055,37.442-24.055
	s17.989-15.898,22.591-20.709c4.602-4.811,44.136-25.937,47.901-28.029C135.689,180.138,147.821,174.908,147.821,174.908z"/>
<linearGradient id="SVGID_18_" gradientUnits="userSpaceOnUse" x1="238.8101" y1="109.376" x2="149.7015" y2="177.9854" gradientTransform="matrix(-0.2024 0.9793 0.9793 0.2024 122.0093 -118.9388)">
	<stop  offset="0" style="stop-color:#25773B"/>
	<stop  offset="1" style="stop-color:#7AC143"/>
</linearGradient>
<path fill="url(#SVGID_18_)" d="M169.89,157.015c0,0,3.22-3.179,1.354-6.555c-1.865-3.376-1.936-5.1,0.549-8.858
	c2.486-3.758-0.51-9.931,3.049-14.748c3.559-4.818,6.779-7.998,7.626-12.094c0.847-4.098,1.961-11.556,7.146-13.902
	c5.184-2.347,9.082-8.803,11.002-13.958c1.919-5.159,8.685-11.023,13.784-12.958c5.1-1.938,10.31-8.549,12.543-11.079
	c2.229-2.529,9.209-3.223,15.452-4.496c6.244-1.273,7.684-8.237,14.591-10.653c6.907-2.418,12.924-6.729,19.155-5.867
	c6.229,0.861,9.592,1.127,13.617,0.251c4.025-0.877,13.449,1.07,13.578,6.65c0.127,5.58,2.572,8.222-2.047,11.966
	c-4.617,3.744-20.565,8.564-20.594,12.832c-0.027,4.267-8.698,13.154-10.943,17.815c-2.246,4.662-10.523,3.379-12.204,9.439
	c-1.68,6.061-11.808,11.657-14.548,16.645c-2.738,4.988-5.705,6.938-10.239,10.272c-4.533,3.334-3.63,3.095-10.72,8.464
	c-7.09,5.37-13.094,7.546-14.9,8.026c-1.809,0.482-9.522,0.596-10.694,4.2c-1.171,3.602-3.643,5.227-6.44,6.356
	c-2.797,1.131-8.137,2.164-9.394,6.176c-1.255,4.014-5.535,6.118-6.849,6.273c-1.314,0.156-10.778,4.607-10.778,4.607l-0.466-3.94
	C162.519,167.88,169.355,163.739,169.89,157.015z"/>
<linearGradient id="SVGID_19_" gradientUnits="userSpaceOnUse" x1="234.5962" y1="103.3428" x2="-15.9971" y2="302.8973" gradientTransform="matrix(-0.2024 0.9793 0.9793 0.2024 122.0093 -118.9388)">
	<stop  offset="0" style="stop-color:#25773B"/>
	<stop  offset="1" style="stop-color:#7AC143"/>
</linearGradient>
<path fill="url(#SVGID_19_)" d="M166.423,166.551l-1.729-0.323c2.052-1.802,4.861-5.001,5.195-9.213c0,0,3.22-3.179,1.354-6.555
	c-1.865-3.376-1.936-5.1,0.549-8.858c2.486-3.758-0.51-9.931,3.049-14.748c3.559-4.818,6.779-7.998,7.626-12.094
	c0.847-4.098,1.961-11.556,7.146-13.902c5.184-2.347,9.082-8.803,11.002-13.958c1.919-5.159,8.685-11.023,13.784-12.958
	c5.1-1.938,10.31-8.549,12.543-11.079c2.229-2.529,9.209-3.223,15.452-4.496c6.244-1.273,7.684-8.237,14.591-10.653
	c6.907-2.418,12.924-6.729,19.155-5.867c6.229,0.861,9.592,1.127,13.617,0.251c3.847-0.838,12.596,0.911,13.484,5.931
	c-0.758,0.455-1.873,1.208-2.295,1.936c-0.662,1.145-28.568,9.047-31.006,11.534c-2.436,2.487-31.006,31.184-31.134,31.798
	c-0.128,0.615-19.21,14.399-24.853,17.934c-5.643,3.532-34.333,37.972-37.145,41.236
	C174.001,155.729,166.423,166.551,166.423,166.551z"/>
<linearGradient id="SVGID_20_" gradientUnits="userSpaceOnUse" x1="254.5054" y1="-162.7798" x2="171.1919" y2="-98.6323" gradientTransform="matrix(0.0619 1.0568 -1.1542 -0.0394 -65.9182 -146.4489)">
	<stop  offset="0" style="stop-color:#25773B"/>
	<stop  offset="1" style="stop-color:#7AC143"/>
</linearGradient>
<path fill="url(#SVGID_20_)" d="M146.129,150.655c0,0-2.926-3.812-0.388-6.612c2.54-2.802,2.894-4.44,0.848-8.637
	c-2.049-4.195,2.151-9.414-0.872-14.881c-3.023-5.466-5.95-9.278-6.191-13.412c-0.244-4.135-0.227-11.56-5.388-15.036
	c-5.158-3.477-8.278-10.596-9.496-16.001c-1.217-5.404-7.497-12.633-12.634-15.695c-5.135-3.062-9.633-10.643-11.608-13.598
	c-1.975-2.955-9.319-5.268-15.785-7.965c-6.465-2.697-6.877-9.725-13.867-13.674c-6.988-3.953-12.721-9.51-19.519-10.156
	c-6.795-0.643-10.432-1.181-14.59-2.973c-4.161-1.791-14.543-2.146-15.584,3.181c-1.039,5.327-4.079,7.287,0.251,11.974
	c4.328,4.684,20.59,13.078,19.929,17.183c-0.66,4.102,7.167,14.683,8.812,19.689c1.645,5.008,10.697,5.729,11.512,11.944
	c0.814,6.216,10.731,13.98,12.852,19.415c2.12,5.437,4.974,8.01,9.28,12.282c4.304,4.271,3.377,3.828,10.085,10.657
	c6.706,6.829,12.771,10.336,14.624,11.225c1.855,0.89,10.078,2.819,10.748,6.556c0.668,3.736,3.045,5.879,5.853,7.625
	c2.805,1.746,8.343,3.998,9.038,8.147c0.692,4.148,4.925,7.181,6.302,7.641c1.381,0.461,10.772,6.968,10.772,6.968l1.136-3.673
	C152.248,162.829,145.614,157.239,146.129,150.655z"/>
<linearGradient id="SVGID_21_" gradientUnits="userSpaceOnUse" x1="250.5688" y1="-168.4194" x2="16.2724" y2="18.1575" gradientTransform="matrix(0.0619 1.0568 -1.1542 -0.0394 -65.9182 -146.4489)">
	<stop  offset="0" style="stop-color:#25773B"/>
	<stop  offset="1" style="stop-color:#7AC143"/>
</linearGradient>
<path fill="url(#SVGID_21_)" d="M148.291,160.631l1.899,0.098c-1.901-2.215-4.384-5.949-4.061-10.073c0,0-2.926-3.812-0.388-6.612
	c2.54-2.802,2.894-4.44,0.848-8.637c-2.049-4.195,2.151-9.414-0.872-14.881c-3.023-5.466-5.95-9.278-6.191-13.412
	c-0.244-4.135-0.227-11.56-5.388-15.036c-5.158-3.477-8.278-10.596-9.496-16.001c-1.217-5.404-7.497-12.633-12.634-15.695
	c-5.135-3.062-9.633-10.643-11.608-13.598c-1.975-2.955-9.319-5.268-15.785-7.965c-6.465-2.697-6.877-9.725-13.867-13.674
	c-6.988-3.953-12.721-9.51-19.519-10.156c-6.795-0.643-10.432-1.181-14.59-2.973c-3.975-1.711-13.605-2.098-15.368,2.513
	c0.737,0.616,1.807,1.602,2.138,2.398c0.524,1.257,29.062,15.432,31.266,18.395c2.199,2.964,28.086,37.264,28.122,37.884
	c0.038,0.619,18.197,18.36,23.655,23.085c5.458,4.725,30.543,44.565,33.017,48.363C141.945,148.449,148.291,160.631,148.291,160.631
	z"/>
<linearGradient id="SVGID_22_" gradientUnits="userSpaceOnUse" x1="207.3774" y1="228.792" x2="126.2189" y2="259.7493">
	<stop  offset="0" style="stop-color:#25773B"/>
	<stop  offset="1" style="stop-color:#7AC143"/>
</linearGradient>
<path fill="url(#SVGID_22_)" d="M159.535,178.256c0,0,2.929,8.158,0.837,10.249c-2.091,2.092-10.041,17.571-9.622,23.01
	c0.418,5.438-5.857,10.877-4.184,18.407c1.674,7.53-0.418,10.457-0.418,20.499c0,10.04-2.092,24.685,1.255,30.123
	c3.347,5.438,7.948,8.785,7.948,12.55c0,3.766,4.603,8.366,5.857,11.713c1.255,3.348,4.184,11.716,9.623,8.786
	c5.438-2.929,12.132-13.387,11.714-17.989c-0.419-4.602-2.51-7.529-0.419-12.969c2.092-5.438,2.511-12.55,4.183-18.406
	c1.674-5.859,3.766-20.083,5.857-23.43s2.929-7.113,2.092-11.714c-0.836-4.602-0.418-12.551-0.418-15.061s2.929-10.04,0-12.969
	c-2.928-2.929-4.602-9.623-8.367-13.806c-3.765-4.184-19.453-13.597-19.453-13.597L159.535,178.256z"/>
<linearGradient id="SVGID_23_" gradientUnits="userSpaceOnUse" x1="163.3716" y1="197.3477" x2="115.2614" y2="258.0082">
	<stop  offset="0.0182" style="stop-color:#204B23"/>
	<stop  offset="0.5879" style="stop-color:#25773B"/>
	<stop  offset="1" style="stop-color:#7AC143"/>
</linearGradient>
<path fill="url(#SVGID_23_)" d="M156.283,170.031c0,0-7.185,8.431-13.299,10.734c-6.116,2.304-19.755,19.577-23.301,30.07
	c-3.544,10.494-3.803,26.219-2.07,32.491c1.734,6.272,2.63,10.629,8.393,11.492c5.763,0.862,10.434,1.104,15.844,5.134
	s9.961-0.604,12.28-5.541c2.318-4.938,2.962-13.71,6.531-17.457c3.568-3.748,3.812-8.42,3.072-12.205
	c-0.739-3.786,2.379-2.498,2.052-7.011c-0.327-4.516-0.8-6.225-0.096-12.559c0.706-6.332,1.982-12.823,0.526-13.648
	s-3.628,1.31-2.813-3.521c0.812-4.828,0.134-6.174-2.68-9.693c-2.814-3.519,1.052-11.185,1.052-11.185l-3.561-1.779L156.283,170.031
	z"/>
<linearGradient id="SVGID_24_" gradientUnits="userSpaceOnUse" x1="141.6943" y1="193.9326" x2="128.307" y2="234.9314">
	<stop  offset="0" style="stop-color:#25773B"/>
	<stop  offset="1" style="stop-color:#7AC143"/>
</linearGradient>
<path fill="url(#SVGID_24_)" d="M117.613,243.327c-1.733-6.272-1.475-21.997,2.07-32.491c3.545-10.493,17.185-27.767,23.301-30.07
	c6.114-2.304,13.299-10.734,13.299-10.734l1.93-4.677l2.672,1.334l-3.869,5.442c0,0-5.504,13.952-6.839,18.002
	c-1.335,4.052-5.77,27.989-7.469,31.834c-1.694,3.834-7.188,27.013-5.242,35.429c-3.71-1.635-7.302-1.956-11.46-2.576
	C120.244,253.956,119.347,249.6,117.613,243.327z"/>
<linearGradient id="SVGID_25_" gradientUnits="userSpaceOnUse" x1="104.1387" y1="182.8359" x2="150.5762" y2="231.3652">
	<stop  offset="0" style="stop-color:#25773B"/>
	<stop  offset="1" style="stop-color:#7AC143"/>
</linearGradient>
<path fill="url(#SVGID_25_)" d="M162.742,179.073c1.014,0.692,4.222,2.842-1.534-1.654c-0.082-0.064-0.169-0.112-0.252-0.173
	l-1.421,1.01c0,0,2.929,8.158,0.837,10.249c-2.091,2.092-10.041,17.571-9.622,23.01c0.418,5.438-5.857,10.877-4.184,18.407
	c1.674,7.53-0.418,10.457-0.418,20.499c0,10.04-2.092,24.685,1.255,30.123c3.347,5.438,7.948,8.785,7.948,12.55
	c0,3.766,4.603,8.366,5.857,11.713c1.002,2.674,3.077,8.534,6.641,9.3l0.889-0.514c0,0,2.93-15.479,1.256-21.335
	c-1.674-5.858,2.092-43.51,4.184-57.734c2.092-14.224-2.092-29.703-2.929-40.161C170.503,185.043,164.126,180.054,162.742,179.073z"
	/>
<path opacity="0.38" fill="#5AB547" d="M70.426,207.331c0,0-23.427-0.628-23.009-2.301c0.419-1.673,6.066-7.532,8.368-8.576
	c2.301-1.047,10.458,4.183,6.275,4.393c-4.184,0.209-7.321,0.627-5.02,1.254C59.34,202.729,72.31,205.03,70.426,207.331z"/>
<path opacity="0.38" fill="#5AB547" d="M44.698,236.196c0,0-7.112-7.739-10.04-7.739c-2.929,0-7.112-0.417-4.393-1.464
	c2.719-1.045,27.61,2.092,25.31,0c-2.3-2.092-21.336-4.183-14.224-4.602s25.311,1.673,22.173-0.419
	c-3.138-2.092-23.846-5.646-25.938-7.321c-2.091-1.674-6.484,0-3.974,0.837c2.51,0.838,8.158,1.882,5.647,2.929
	c-2.509,1.045-9.622,1.045-5.856,3.346c3.765,2.302-8.158,3.347-6.903,5.648c1.255,2.301,11.295,5.229,11.295,6.903
	C37.795,235.986,46.999,239.753,44.698,236.196z"/>
<path opacity="0.38" fill="#5AB547" d="M12.904,238.497c0,0,4.811-0.627,7.53,1.882c2.719,2.511,8.786,2.931,12.341,2.931
	c3.557,0,5.648,2.091-0.836,3.554c-6.484,1.466-24.683,0-24.683,0S13.112,241.008,12.904,238.497z"/>
<path opacity="0.38" fill="#5AB547" d="M4.955,251.049c0,0,9.203,0,12.342,0c3.137,0,11.504-0.419,10.667,0.627
	s-5.857,4.183-5.857,4.812c0,0.627-6.066,0.208-9.622,0.836c-3.556,0.627-9.204,1.883-9.204,1.883S2.863,253.558,4.955,251.049z"/>
<path opacity="0.38" fill="#5AB547" d="M1.399,269.667c0,0,15.688-4.394,16.525-5.857c0.836-1.465,3.766-4.813,2.092-4.813
	c-1.673,0-13.805,0.836-11.714,2.303c2.092,1.465,0.209,5.438-5.857,5.857L1.399,269.667z"/>
<path opacity="0.38" fill="#5AB547" d="M80.048,183.484c0,0,1.883,3.975,3.138,5.23c1.254,1.255,14.015,6.484,11.923,4.391
	c-2.092-2.092-10.877-9.412-10.877-11.504C84.232,179.511,81.094,182.229,80.048,183.484z"/>
<path opacity="0.38" fill="#5AB547" d="M96.364,180.556c0,0,8.995,4.812,7.949,3.348c-1.046-1.465-4.603-5.439-4.603-5.439
	L96.364,180.556z"/>
<g>
	<g>
		<path fill="#3A793A" d="M229.139,247.387c0.965,0,3.519-1.461,1.357-1.461C229.532,245.926,226.978,247.387,229.139,247.387
			L229.139,247.387z"/>
	</g>
</g>
<linearGradient id="SVGID_26_" gradientUnits="userSpaceOnUse" x1="223.0806" y1="169.8828" x2="178.7356" y2="221.3397">
	<stop  offset="0" style="stop-color:#25773B"/>
	<stop  offset="1" style="stop-color:#7AC143"/>
</linearGradient>
<path fill="url(#SVGID_26_)" d="M258.683,167.587c-4.602-4.602-18.406-12.132-29.283-14.224
	c-10.878-2.092-32.632,1.255-37.652,5.438s-15.897,6.275-15.897,6.275l-5.02-0.627l-0.157,2.981l6.642-0.681
	c0,0,14.851,2.092,19.034,2.928c4.184,0.837,27.193,8.785,31.377,9.204c4.17,0.417,27.043,7.069,33.402,12.913
	c0.41-4.032,1.902-7.315,3.412-11.24C266.632,175.117,263.286,172.189,258.683,167.587z"/>
<linearGradient id="SVGID_27_" gradientUnits="userSpaceOnUse" x1="-381.3096" y1="-73.0049" x2="-323.5752" y2="-9.4134" gradientTransform="matrix(-0.245 -0.6109 -0.5946 0.2169 -29.0484 -58.0946)">
	<stop  offset="0.3455" style="stop-color:#25773B"/>
	<stop  offset="1" style="stop-color:#7AC143"/>
</linearGradient>
<path fill="url(#SVGID_27_)" d="M147.111,166.77c0,0-10.247-10.618-13.862-12.521c-3.614-1.904-9.455-6.512-12.104-6.718
	c-2.649-0.205-5.941,0.117-10.303-1.514c-4.36-1.632-10.903-6.569-14.709-7.525c-3.804-0.956-15.614-3.386-17.21-3.096
	c-1.595,0.288-11.839-0.369-14.722,0.975c-2.882,1.345-5.092,5.078-4.959,8.254c0.133,3.173,3.603,10.402,7.175,12.909
	c3.572,2.505,13.817,8.143,17.213,8.076c3.394-0.066,6.263,2.109,9.351,1.276c3.086-0.833,6.542-0.043,9.147,0.765
	c2.604,0.808,6.219,2.711,9.015,2.57c2.796-0.141,9.381-0.784,12.482-0.159c3.104,0.627,15.982,0.03,16.933,0.27
	c0.951,0.239,4.757,3.685,4.757,3.685l2.707-1.428L147.111,166.77z"/>
<linearGradient id="SVGID_28_" gradientUnits="userSpaceOnUse" x1="-401.4346" y1="-84.3848" x2="-350.8123" y2="-18.7013" gradientTransform="matrix(-0.245 -0.6109 -0.5946 0.2169 -29.0484 -58.0946)">
	<stop  offset="0" style="stop-color:#25773B"/>
	<stop  offset="1" style="stop-color:#7AC143"/>
</linearGradient>
<path fill="url(#SVGID_28_)" d="M145.591,169.374c0,0-26.14-11.851-32.637-12.41c-6.498-0.561-19.188-5.891-26.681-6.088
	c-7.492-0.196-25.671-9.971-25.671-9.971s-2.354,4.081,1.35,9.762c3.704,5.678,6.544,9.916,6.852,10.682
	c0.307,0.768,2.927,3.034,6.468,2.622c3.542-0.414,5.708,1.433,6.718,2.529c1.01,1.096,5.795,0.229,7.596,0.452
	c1.8,0.222,4.888-0.611,6.395,0.303c1.508,0.915,3.044-0.23,4.596,0.083c1.551,0.312,4.859,1.45,4.859,1.45l9.335-0.184
	l27.163,4.447l4.625,3l1.462-3.464L145.591,169.374z"/>
<path fill="#101315" d="M170.621,168.006l6.694-1.255v-0.838h-5.857c0,0,7.949-3.137,11.296-4.183s17.361-8.157,26.983-8.994
	s42.672-0.837,42.672-0.837s-34.097-0.837-41.835-0.209c-7.74,0.627-36.605,12.131-36.605,12.131l-3.138,0.21l-1.046-2.719
	l8.158-7.949l-6.485,5.647l-0.627-1.882c0,0,19.871-20.081,25.938-25.31c6.065-5.23,40.998-40.58,40.998-40.58
	s-40.161,37.859-41.208,39.324c-1.045,1.465-12.131,10.25-12.551,11.086c-0.418,0.837-13.805,14.225-13.805,14.225l-2.719,1.463
	l-0.801,0.559l4.846-5.369l-0.285-2.066l-5.434,5.972l4.882-7.251l-0.978-1.394l-4.88,8.087l-1.395-0.279l5.298-8.088h-2.092
	l-4.602,8.367l4.184-17.989c0,0,1.674-10.459,1.674-20.5c0-10.039,6.275-43.926,6.275-43.926c-3.347,5.02-8.785,48.11-8.367,57.313
	s-6.275,25.102-6.275,25.102l0.419-9.204l-2.929,10.877l0.418-6.693l-10.877-24.683l-0.418,2.092l8.785,22.591v7.53l-4.183-10.459
	l2.928,13.806l-8.367-15.479l7.016,16.321l-18.312-29.291l-14.224-19.243c0,0-9.622-13.807-12.551-18.826
	c-2.928-5.02-20.08-19.663-20.08-19.663s7.53,8.786,11.295,12.551c3.765,3.766,25.938,33.887,29.285,38.488
	c3.347,4.602,23.427,38.07,23.427,38.07l-4.057,2.11c0,0-21.462-6.294-23.136-7.968c-1.673-1.673-21.754-4.184-21.754-4.184
	s16.595,3.626,17.85,3.626c1.255,0,4.183,2.51,4.183,2.51l26.077,8.507l0.31,1.134l-1.773,2.004l-2.719,3.138
	c0,0-11.505,4.394-13.178,5.229c-1.674,0.836-16.524,7.949-18.617,9.204c-2.092,1.254-31.585,20.707-31.585,20.707
	s-3.346,4.393-4.602,5.23c-1.255,0.836-16.734,15.061-16.734,15.061s18.616-14.434,21.335-18.199
	c2.719-3.765,33.887-21.755,37.233-24.054c3.347-2.301,14.224-7.74,16.525-8.159c2.3-0.418,11.923-5.02,12.759-5.647
	c0.837-0.627,2.301-1.463,2.301-1.463l-5.021,8.575l6.484-7.321l0.628,1.673l-4.184,18.199L155.142,177l2.929,0.838l0.418,8.156
	l1.046-1.464v-6.274l1.673-0.837c0,0,7.321,8.367,8.158,11.922c0.837,3.558,4.394,20.501,4.812,24.265c0,0-0.837-12.759-1.465-15.27
	c-0.627-2.511-1.882-11.086-2.301-12.132c-0.418-1.046-7.32-9.832-7.32-9.832l1.464-2.091l6.483,6.902l1.256-0.628l-6.275-6.902
	c0,0,7.321,3.137,9.412,5.438l1.047-0.418l-7.53-6.066l0.21-1.883l4.811,2.302l-3.348-3.348c0,0,17.989-1.255,22.801,0
	c4.811,1.256,26.773,7.111,26.773,7.111s-25.101-7.529-27.82-8.784C189.656,166.751,170.621,168.006,170.621,168.006z"/>
</svg>
