<?xml version="1.0" encoding="utf-8"?>
<!-- Generator: Adobe Illustrator 15.0.0, SVG Export Plug-In  -->
<!DOCTYPE svg PUBLIC "-//W3C//DTD SVG 1.1//EN" "http://www.w3.org/Graphics/SVG/1.1/DTD/svg11.dtd" [
	<!ENTITY ns_flows "http://ns.adobe.com/Flows/1.0/">
]>
<svg version="1.1"
	 xmlns="http://www.w3.org/2000/svg" xmlns:xlink="http://www.w3.org/1999/xlink" xmlns:a="http://ns.adobe.com/AdobeSVGViewerExtensions/3.0/"
	 x="0px" y="0px" width="326px" height="330px" viewBox="0 0 326 330" overflow="visible" enable-background="new 0 0 326 330"
	 xml:space="preserve">
<defs>
</defs>
<path fill="#2A431D" d="M198.577,211.107c0.367-18.603-24.615-45.974-24.615-45.974l2.432-0.771l25.334,34.109
	c-0.04-5.246-22.059-34.187-22.059-34.187c4.457,1.922,30.205,40.757,30.205,40.757c0.529-6.126-25.189-40.4-25.189-40.4
	l0.449-1.246c18.084,9.679,51.598,55.808,51.598,55.808c-2.148-7.117-17.146-28.245-17.146-28.245l19.515,24.164
	c-3.92-8.929-30.279-42.778-30.279-42.778c7.767,5.078,37.278,42.838,37.278,42.838c-2.713-14.361-40.549-51.049-40.549-51.049
	l37.684,30.649l-32.769-32.657l55.698,44.711c-5.226-9.901-49.82-45.687-49.82-45.687l54.338,42.884
	c-3.362-5.699-53.152-45.981-47.283-41.781c6.11,4.37,52.876,38.027,52.876,38.027l-27.051-24.356
	c14.21,11.779,31.997,22.415,31.997,22.415c-4.902-3.311-34.809-30.728-34.809-30.728c12.982,7.265,37.918,30.886,37.918,30.886
	l-13.531-16.232l14.645,9.598l-7.928-9.58l12.963,7.393l-28.438-28.108c6.29,6.073,31.676,29.28,31.676,29.28
	c-4.842-12.59-28.859-32.794-28.859-32.794c13.358,6.991,32.217,30.61,32.217,30.61c-1.119-11.846-20.244-27.812-20.244-27.812
	c9.434,6.406,26.762,24.652,26.762,24.652c1.134-7.585-16.857-26.57-16.857-26.57l22.885,21.451
	c-2.346-10.895-14.352-20.968-16.164-22.439c9.448,0.43,15.168,0.88,15.168,0.88c-60.914-8.663-137.752,5.142-137.752,5.142
	C189.477,189.854,198.577,211.107,198.577,211.107z"/>
<path fill="#2A431D" d="M294.577,157.607c0,0,9.467-3,11.126-5.772l-12.853,3.633l13.6-10.317l-17.859,10.14
	c0,0,16.748-12.905,17.85-18.483c0,0-16.749,14.656-21.639,16.492c0,0,14.498-11.926,18.556-18.644l-4.841,2.79l2.93-6.472
	l-23.662,18.107c0,0,17.608-15.509,18.492-19.644c0,0-20.369,16.938-27.457,20.592c0,0,18.057-12.875,20.993-21.414
	c0,0-11.678,12.575-18.823,16.585c0,0,11.683-11.669,12.884-17.881c0,0-7.427,8.547-12.622,11.88l4.383-7.03
	c0,0-11.406,13.894-17.162,16.818c0,0,15.47-15.818,17.37-22.588l-6.798,7.247l2.614-8.498c0,0-17.882,23.86-25.072,29.072
	c0,0,16.687-20.918,18.647-29.313c0,0-17.521,24.411-23.348,28.261c0,0,13.306-13.691,17.812-30.384
	c0,0-17.766,25.502-22.822,30.006c0,0,13.683-18.566,17.357-31.76l-16.502,24.325l9.752-21.76c0,0-19.917,31.299-21.688,32.218
	c0,0,9.88-21.503,13.208-33.284l-10.125,21.79l4.879-22.581l-7.941,17.774l5.955-20.366l-15.148,36.553l10.65-39.02l-15.525,39.597
	l5.73-19.49l-9.111,20.613l11.951-36.974l-15.395,35.988l11.333-37.868l-13.516,36.795l10.883-38.254l-6.007,15.465l2.596-16.599
	l-9.094,23.619c0,0,4.279-21.559,3.987-25.207l-6.438,17.165l2.474-14.34l-5.47,14.767l0.731-9.762c0,0-11.257,33.511-15.861,38.216
	l-1.812,0.043c0,0,9.382-19.788,13.339-35.312l-3.971,8.924c0,0,2.631-10.81,2.783-16.167c0,0-14.479,41.631-16.877,43.801
	l-1.596,0.978c0,0,14.537-33.776,14.748-44.932c0,0-14.076,40.816-17.648,46.587C169.509,164.331,279.843,155.656,294.577,157.607z"
	/>
<path fill="#2A431D" d="M166.06,215.357c15.707-9.973,24.717-45.92,24.717-45.92l1.984,1.602L178.331,211
	c4.349-2.931,16.305-37.273,16.305-37.273c0.861,4.775-17.28,47.696-17.28,47.696c5.398-2.944,19.755-43.318,19.755-43.318
	l1.287-0.316c1.924,20.422-18.006,73.844-18.006,73.844c4.744-5.723,14.067-29.898,14.067-29.898l-9.358,29.617
	c5.276-8.2,18.924-48.873,18.924-48.873c0.06,9.279-15.105,54.738-15.105,54.738c10.471-10.195,20.145-62.002,20.145-62.002
	l-4.725,48.344l9.113-45.355l-6.492,71.126c5.367-9.825,10.553-66.767,10.553-66.767l-5.719,68.986
	c2.893-5.953,8.955-69.711,8.698-62.498c-0.268,7.508-2.479,65.085-2.479,65.085l5.354-36.005
	c-1.966,18.352-1.004,39.055-1.004,39.055c0.05-5.916,6.379-45.992,6.379-45.992c1.118,14.834-4.792,48.671-4.792,48.671
	l6.053-20.249l0.092,17.51l3.605-11.901l1,14.89l7.716-39.232c-1.587,8.598-6.903,42.578-6.903,42.578
	c7.817-10.99,11.388-42.172,11.388-42.172c1.554,14.997-7.713,43.766-7.713,43.766c9.255-7.479,11.995-32.24,11.995-32.24
	c-0.125,11.399-5.76,35.928-5.76,35.928c6.949-3.248,12.832-28.732,12.832-28.732l-5.235,30.927
	c7.786-7.976,9.548-23.548,9.772-25.872c4.863,8.111,7.646,13.128,7.646,13.128c-26.437-55.558-80.398-111.974-80.398-111.974
	C178.744,196.029,166.06,215.357,166.06,215.357z"/>
<path fill="#2A431D" d="M263.694,265.812c0,0,7.73,6.23,10.959,6.084l-10.133-8.706l16.115,5.635l-18.318-9.284
	c0,0,20.01,6.829,25.268,4.664c0,0-21.47-5.859-25.701-8.922c0,0,17.951,5.496,25.791,5.164l-5-2.494l7.014-1.133l-28.166-9.717
	c0,0,22.656,6.105,26.59,4.559c0,0-25.373-7.619-32.334-11.506c0,0,20.709,7.935,29.447,5.666c0,0-16.933-2.786-24.224-6.526
	c0,0,16.181,3.29,22.022,0.857c0,0-11.227-1.466-16.875-3.955l8.28-0.231c0,0-17.883-1.83-23.502-5.012
	c0,0,21.733,4.154,28.426,1.996l-9.796-1.66l8.527-2.518c0,0-29.768-1.721-38.086-4.833c0,0,26.656,2.35,34.735-0.655
	c0,0-30.025-1.114-36.454-3.844c0,0,18.764,3.525,35.166-1.941c0,0-31.072-0.717-37.619-2.442c0,0,23.034,1.146,36.062-3.083
	l-29.392-0.313l23.525-3.896c0,0-37.094,0.694-38.838-0.275c0,0,23.383-3.646,35.041-7.382l-23.758,3.601l21.518-8.41l-19.203,3.202
	l20.268-6.288l-38.838,7.57L260.62,187.1l-41.584,8.938l19.412-5.994l-22.216,3.798l37.422-10.47l-38.501,7.053l37.822-11.477
	l-38.135,9.065l37.897-12.066l-16.208,3.539l15.268-7.009l-24.71,5.472c0,0,20.332-8.346,23.213-10.605l-17.864,4.119l13.319-5.862
	l-15.33,3.6l8.54-4.786c0,0-34.149,9.135-40.615,7.899l-1.037-1.487c0,0,21.678-3.114,36.803-8.394l-9.633,1.621
	c0,0,10.464-3.779,15.014-6.612c0,0-42.701,10.935-45.834,10.134l-1.696-0.789c0,0,36.185-6.548,45.6-12.535
	c0,0-41.798,10.82-48.583,11.032C188.983,165.284,257.179,252.453,263.694,265.812z"/>
<path fill="#2A431D" d="M187.47,205.737l-8.223-51.688l2.77-1.477c0,0,2.594,45.575,19.295,61.271c0,0-10.811-26.155-17.593-64.635
	c0.919-0.805,1.427-1.25,1.427-1.25c-8.16-1.821-56.23-24.576-56.23-24.576c10.007,9.422,52.275,25.706,52.275,25.706l-2.236,0.562
	c-3.976,0.245-53.112-22.854-53.112-22.854c4.851,4.479,16.636,11.47,16.636,11.47l-11.28-4.187
	c17.081,9.882,42.588,18.661,42.588,18.661l-1.598,1.56c-8.108,0.004-47.315-18.942-47.315-18.942l9.226,7.763l-17.716-7.898
	l14.761,10.169l-20.663-9.111c2.963,3.398,25.634,18.195,25.634,18.195l-28.633-12.333l16.854,12.012l-18.794-8.028l43.065,23.361
	l-44.045-19.785l43.111,22.629l-44.956-17.433l42.859,21.314l-26.001-9.727l22.101,11.736L93.43,157.797l43.54,24.224
	l-45.241-18.136l23.066,12.293l-22.492-8.313l24.089,15.148l-27.912-9.845c13.242,7.214,40.69,17.03,40.69,17.03
	c-2.334,0.768-47.052-8.643-47.052-8.643l27.562,10.148l-35.635-6.412c14.786,8.125,42.921,12.062,42.921,12.062
	c-8.321,0.574-46.083-5.739-46.083-5.739c18.583,10.405,42.101,10.478,42.101,10.478c-8.41,1.815-44.997-3.776-44.997-3.776
	c9.082,5.503,41.875,8.821,41.875,8.821c-10.783,1.844-47.196-2.955-47.196-2.955l9.733,5.016l-12.235-0.253
	c7.599,4.157,34.855,4.154,34.855,4.154c-7.535,2.55-29.595,0.633-29.595,0.633l9.966,2.192c-7.409,1.706-21.333,0.889-21.333,0.889
	c6.508,4.289,26.846,4.051,26.846,4.051c-9.686,2.838-30.819,2.295-30.819,2.295c10.05,4.767,36.939-0.049,36.939-0.049
	c-9.32,3.096-41.783,6.451-41.783,6.451c4.403,2.78,33.228,0.627,33.228,0.627l-36.324,5.248l8.224,2.99l-6.629,1.864
	c9.413,2.21,32.401-0.289,32.401-0.289c-5.827,2.728-33.159,4.856-33.159,4.856c5.863,3.834,31.65,0.198,31.65,0.198l-24.309,6.997
	l20.797-3.092l-14.267,8.189c3.146,0.754,10.866-2.908,13.644-4.306c-3.474,4.261-6.824,8.563-10.002,12.896
	c0,0,4.528-5.424,12.288-14.117c-0.267,2.863-1.733,22.111,5.843,33.562l0.813-38.629c0,0,1.228,32.192,8.885,37.729
	c0,0-1.148-30.979,1.335-44.802c0,0-2.409,30.595,7.061,41.782c0,0-4.562-36.951,0.784-54.736c0,0-2.888,38.552,4.031,53.657
	c0,0,1.422-42.342,1.49-53.112l0.266,49.25l4.653-17.782l1.61,15.233l4.156-21.164l2.646,25.898c0,0,0.669-42.305,5.45-59.994
	c0,0-1.605,49.951-2.913,57.118c0,0,5.95-24.826,7.813-47.484l-1.843,44.802c0,0,10.63-70.176,12.041-79.32
	c1.356-8.787-6.044,69.757-3.919,77.627l9.025-84.79c0,0-6.886,70.095-2.665,83.222l8.587-87.558l0.542,56.984l5.458-59.585
	c0,0-0.271,64.918,10.043,79.674c0,0-7.844-58.508-5.627-69.723c0,0,7.113,52.369,11.601,63.508l-4.478-37.996
	c0,0,5.693,31.404,10.11,39.426c0,0-11.768-69.243-4.717-93.506l1.482,0.679c0,0,8.04,52.166,13.891,56.976
	c0,0-12.031-56.121-9.886-61.701C176.355,156.869,182.884,201.185,187.47,205.737z"/>
<path fill="#2A431D" d="M118.47,193.984l52.336-0.594l1.056,2.957c0,0-45.466-4.087-63.431,10.145c0,0,27.452-6.878,66.51-7.973
	c0.662,1.027,1.028,1.596,1.028,1.596c2.992-7.808,32.519-52.042,32.519-52.042c-10.782,8.525-33.06,47.965-33.06,47.965
	l-0.23-2.294c0.339-3.971,30.36-49.21,30.36-49.21c-5.137,4.146-13.773,14.784-13.773,14.784l5.787-10.548
	c-12.269,15.455-24.676,39.41-24.676,39.41l-1.311-1.809c1.181-8.023,25.646-44.045,25.646-44.045l-9.026,7.995l10.398-16.374
	l-12.214,13.12l12.028-19.111c-3.795,2.435-21.741,22.705-21.741,22.705l16.38-26.526l-14.344,14.918l10.686-17.419l-29.396,39.194
	l26.001-40.687l-28.678,39.347l23.807-41.93l-27.34,39.29l13.417-24.305l-14.836,20.153l27.247-44.75L149.3,147.483l24.544-42.109
	L158.318,126.4l11.506-21.039l-18.503,21.621l13.813-26.178c-9.068,12.05-22.786,37.771-22.786,37.771
	c-0.418-2.423,15.418-45.288,15.418-45.288l-14.063,25.787l11.543-34.319c-10.195,13.441-18.197,40.701-18.197,40.701
	c0.646-8.315,12.404-44.75,12.404-44.75c-13.007,16.866-16.511,40.121-16.511,40.121c-0.57-8.585,10.303-43.964,10.303-43.964
	c-6.771,8.181-14.838,40.139-14.838,40.139c-0.251-10.935,9.81-46.258,9.81-46.258l-6.382,8.897l2.037-12.067
	c-5.221,6.91-9.197,33.875-9.197,33.875c-1.422-7.825,3.692-29.37,3.692-29.37l-3.621,9.539c-0.607-7.578,2.234-21.232,2.234-21.232
	c-5.193,5.81-7.925,25.966-7.925,25.966c-1.396-9.997,2.227-30.823,2.227-30.823c-6.182,9.247-5.343,36.55-5.343,36.55
	c-1.702-9.672-0.284-42.277-0.284-42.277c-3.392,3.95-5.47,32.781-5.47,32.781l0.109-36.702l-4.16,7.7l-0.876-6.831
	c-3.559,8.99-4.443,32.096-4.443,32.096c-1.847-6.162,0.036-33.512,0.036-33.512c-4.648,5.241-4.815,31.282-4.815,31.282
	l-3.375-25.068l0.025,21.026l-6.02-15.31c-1.205,3.001,1.292,11.173,2.268,14.125c-3.707-4.059-7.475-8.001-11.297-11.777
	c0,0,4.705,5.271,12.172,14.217c-2.793-0.682-21.622-4.943-34.056,0.882l38.097,6.442c0,0-32.028-3.482-38.622,3.285
	c0,0,30.814,3.384,44.127,7.858c0,0-29.916-6.849-42.364,0.89c0,0,37.221,0.878,54.036,8.761c0,0-37.719-8.482-53.673-3.84
	c0,0,41.682,7.584,52.326,9.223l-48.762-6.921l16.915,7.196l-15.306-0.628l20.331,7.2l-26.006-1.162c0,0,41.753,6.835,58.558,14.147
	c0,0-49.184-8.878-56.083-11.217c0,0,23.691,9.51,45.836,14.659l-44.053-8.363c0,0,67.873,20.759,76.714,23.489
	c8.495,2.625-68.127-16.16-76.225-15.207l82.565,21.301c0,0-68.339-17.04-81.942-14.78l85.369,21.274l-56.453-7.78l58.148,14.096
	c0,0-64.182-9.742-80.285-1.691c0,0,59.026,0.778,69.798,4.607c0,0-52.846-0.604-64.521,2.208l38.242,1.116
	c0,0-31.897,1.049-40.478,4.249c0,0,70.218-1.536,93.192,8.979l-0.887,1.366c0,0-52.782,0.342-58.394,5.429
	c0,0,57.276-3.711,62.484-0.777C168.437,190.117,123.642,190.11,118.47,193.984z"/>
<path fill="#3A7137" d="M266.87,193.941c-20.662-16.222-80.252-18.666-80.252-18.666l1.545-3.111l67.275,8.332
	c-6.021-4.546-63.863-11.555-63.863-11.555c7.352-2.297,77.745,10.176,77.745,10.176c-6.229-5.684-71.952-14.542-71.952-14.542
	l-1.246-1.656c30.551-6.809,107.162,6.163,107.162,6.163c-8.299-4.122-41.477-10.26-41.477-10.26l39.236,5.137
	c-11.412-4.375-70.084-13.353-70.084-13.353c13.002-1.691,74.891,8.108,74.891,8.108c-15.622-9.963-88.219-13.309-88.219-13.309
	l66.472-1.767l-64.312-4.403l91.653-1.933c-12.653-4.736-87.316-3.935-87.316-3.935l87.718-1.558
	c-7.416-2.523-90.474-2.526-79.851-3.069c10.619-0.547,80.093-3.929,80.093-3.929l-42.909-2.692
	c22.487,0.567,44.347-2.283,44.347-2.283c-6.166,0.428-55.553-3.542-55.553-3.542c17.921-2.478,57.673,1.618,57.673,1.618
	l-24.054-5.225l18.857-1.238l-14.153-3.282l15.435-1.904l-47.765-7.055c11.232,1.548,50.871,6.014,50.871,6.014
	c-14.577-8.15-52.411-11.427-52.411-11.427c17.508-2.169,52.609,7.383,52.609,7.383c-11.371-9.918-40.395-12.699-40.395-12.699
	c13.316,0.018,41.725,5.856,41.725,5.856c-5.978-7.497-36.303-14.159-36.303-14.159l35.609,5.923
	c-11.232-8.56-28.955-10.817-31.699-11.122c7.117-5.38,11.496-8.362,11.496-8.362c-56.191,31.329-113.926,110.54-113.926,110.54
	C234.616,183.865,266.87,193.941,266.87,193.941z"/>
<path fill="#3A7137" d="M284.449,73.948c0,0,3.814-8.714,2.302-12.442l-5.672,11.414l-0.355-18.549l-2.952,21.045
	c0,0-0.63-23.214-5.463-29.626c0,0,2.394,25.126,0.593,30.052c0,0-1.299-21.086-5.154-30.506l-0.813,5.806l-4.528-8.59l0.652,33.572
	c0,0-2.659-27.195-6.402-32.159c0,0,1.994,30.617,0.254,39.067c0,0,0.557-25.081-6.412-36.047c0,0,4.301,20.768,2.871,29.631
	c0,0-3.312-19.887-9.289-27.387c0,0,3.402,13.981,2.796,20.925l-4.272-10.403c0,0,6.115,22.316,4.578,29.313
	c0,0-4.884-27.136-11.07-35.774l2.517,12.376l-7.694-11.069c0,0,12.266,37.794,12.086,48.312c0,0-9.876-33.759-18.191-44.359
	c0,0,13.463,38.516,12.861,46.757c0,0-4.412-23.926-20.63-45.442c0,0,14.864,40.376,15.715,48.822c0,0-10.071-29.716-23.172-47.093
	l14.911,38.72l-18.208-31.045c0,0,20.532,48.76,20.021,51.092c0,0-17.74-30.424-29.955-46.196l18.469,31.818l-24.99-28.847
	l15.762,26.075l-21.467-27.618l33.395,52.042l-41.787-51.554l37.806,56.178l-20.114-25.392l18.259,29.383l-38.257-50.318
	l33.547,52.246l-40.902-51.247l37.278,52.037l-42.511-51.661l16.014,22.968l-21.762-21.552l24.696,34.914
	c0,0-27.27-28.431-33.342-32.614l18.768,25.756l-19.165-18.965l16.322,22.083l-14.227-11.985c0,0,37.214,47.213,38.896,56.329
	l-1.914,1.766c0,0-18.412-29.591-37.634-50.787l9.15,13.862c0,0-13.818-14.886-22.331-21.447c0,0,46.934,59.678,47.408,64.183
	l-0.354,2.54c0,0-34.217-50.125-52.125-63.553c0,0,46.88,58.749,51.306,68.063C180.562,178.865,271.565,81.387,284.449,73.948z"/>
<path fill="#7CBC42" d="M196.122,162.919c0,0,57.297-3.611,107.162,6.163c0,0-63.342-10-88.837-12.188l46.017,2.294
	c0,0-38.955-7.134-58.996-2.732l6.997,1.54l-9.866,1.111L196.122,162.919z"/>
<polygon fill="#7CBC42" points="244.532,106.637 293.813,110.04 248.529,109.788 285.997,113.012 248.437,114.399 255.384,116.299 
	240.048,116.184 241.905,113.482 245.272,113.215 241.384,111.932 243.917,109.697 246.297,108.552 243.34,107.21 "/>
<path fill="#7CBC42" d="M182.054,173.525c0,0,13.883-21.173,23.241-29.851l-18.603-21.66l16.684,20.838l-1.342,1.661l-36.792-43.642
	l34.673,45.563l-1.549,3.111l-34.345-39.968l32.228,41.89l-26.186-28.276l25.409,29.833l-31.002-29.508l15.017,18.2l-23.792-25.535
	l34.713,42.606l-7.579-6.613l6.136,9.002l-4.904,7.264l-21.986-27.872l21.418,29.275L182.054,173.525z"/>
<path fill="#315025" d="M200.451,154.464c0,0,33.938-0.601,48.345,0.865l-42.963-3.624l8.082-0.903l-3.943-2.215
	c0,0,72.337,2.571,94.48,9.56c22.139,6.992,1.398,0.567,1.398,0.567s-32.826-11.266-59.354-10.734l-28.864-2.574l-3.893-2.582
	l37.199-0.142c0,0-33.627-1.576-36.381-4.363L200.451,154.464z"/>
<path fill="#315025" d="M198.414,147.889l-34.708-40.016c0,0,15.688,16.075,20.362,20.984c4.675,4.913,15.847,17.578,15.847,17.578
	L198.414,147.889z"/>
<polygon fill="#315025" points="229.683,125.453 250.356,126.416 233.171,122.338 246.462,122.539 235.882,118.832 273.272,121.31 
	236.733,116.734 228.201,124.139 "/>
<polygon fill="#315025" points="250.77,104.69 271.445,105.653 254.259,101.573 267.55,101.776 256.972,98.069 294.36,100.543 
	257.821,95.969 249.289,103.375 "/>
<polygon fill="#315025" points="216.465,139.003 237.145,138.104 219.663,135.582 232.917,134.591 222.048,131.85 259.51,130.964 
	222.707,129.682 214.873,137.822 "/>
<path fill="#315025" d="M206.1,144.206c0,0,59.351-59.097,76.696-69.01c0,0-12.61,7.804-15.168,10.219l-1.771-24.944l-0.094,25.375
	l-1.846-7.611l0.877,8.585l-4.654,3.509l-1.613-24.089l-2.033,27.322l-2.831,2.379l-0.633-5.361l-2.982-11.379
	c0,0,3.228,16.547,2.688,18.413l-3.723,2.809c0,0-5.184-21.399-6.63-24.932c0,0,4.921,25.245,4.999,26.647l-5.621,5.453
	l-7.943-22.482l5.11,23.887l-1.896,2.647l-5.002-10.832l3.141,13.206l-2.285,2.453c0,0-7.19-15.99-7.93-16.649
	c-0.741-0.659,6.494,17.976,6.494,17.976l-1.705,1.284l-15.431-32.408l12.091,34.438l-8.104-9.462l6.092,11.952l-2.677,2.265
	l-10.371-14.083l8.705,16.066l-4.602-6.749l2.857,8.31l-12.154-12.25l10.371,14.08l-3.035-1.12l1.137,3.768l-8.92-9.578
	l5.997,11.939l-1.961,2.778l-10.8-14.973l9.09,15.289l-1.941,0.007L191.9,121.816l11.82,18.586L206.1,144.206z"/>
<path fill="#7CBC42" d="M235.254,100.571c0,0-8.723-23.837-13.444-31.716C221.81,68.855,233.315,86.703,235.254,100.571z"/>
<path fill="#7CBC42" d="M235.749,64.43c0,0,7.834,25.241,7.566,27.146C243.048,93.479,245.667,83.721,235.749,64.43z"/>
<path fill="#7CBC42" d="M246.843,56.552l5.939,28.859C252.782,85.412,251.294,64.392,246.843,56.552z"/>
<path fill="#7CBC42" d="M230.913,105.789l-4.924-12.344l1.062,5.283l-5.513-13.122l3.685,12.309l-10.012-26.516
	C215.212,71.398,229.614,98.254,230.913,105.789z"/>
<path fill="#7CBC42" d="M279.122,77.64c0,0-67.016,54.414-94.27,97.016l-2.071,0.268C182.781,174.923,213.396,129.46,279.122,77.64z
	"/>
<path fill="#3A7137" d="M142.441,241.738c17.336-16.497,33.255-74.754,33.255-74.754l2.028,2.275l-22.256,64.428
	c4.911-4.852,23.93-60.281,23.93-60.281c0.031,7.812-26.142,74.322-26.142,74.322c5.836-4.783,28.132-67.549,28.132-67.549
	l1.565-0.834c-1.967,31.811-29.988,104.338-29.988,104.338c5.123-7.2,17.658-38.483,17.658-38.483l-13.193,37.507
	c6.052-10.215,26.776-65.992,26.776-65.992c-1.763,13.248-23.879,72.002-23.879,72.002c11.34-13.027,31.017-83.908,31.017-83.908
	l-14.305,66.066l18.537-62.449l-20.11,90.973c6.62-11.354,23.599-85.275,23.599-85.275l-19.472,86.994
	c3.687-6.715,23.26-88.733,21.173-78.111c-2.081,10.617-15.852,80.039-15.852,80.039l12.18-41.725
	c-5.736,22.068-8.696,44.34-8.696,44.34c1.124-6.189,15.813-54.002,15.813-54.002c-2.318,18.292-14.832,56.561-14.832,56.561
	l9.684-22.494l-3.494,18.92l5.857-13.187l-2.172,15.702l16.676-45.468c-3.836,10.716-16.609,48.786-16.609,48.786
	c9.701-12.434,21.134-49.004,21.134-49.004c-2.458,17.811-18.071,50.172-18.071,50.172c10.303-8.838,19.278-36.828,19.278-36.828
	c-3.151,13.145-14.333,39.791-14.333,39.791c7.171-4.098,19.437-32.439,19.437-32.439l-12.942,33.739
	c9.225-9.03,15.136-25.989,16.016-28.624c2.458,8.325,3.719,13.368,3.719,13.368c-10.838-63.039-58.109-139.133-58.109-139.133
	C157.786,212.314,142.441,241.738,142.441,241.738z"/>
<path fill="#3A7137" d="M230.519,288.003c0,0,5.798,5.867,9.019,5.268l-7.435-8.348l14.34,4.116l-15.479-7.985
	c0,0,17.99,4.971,24.057,1.744c0,0-19.875-3.689-23.235-6.656c0,0,16.512,3.797,24.659,2.26l-4.27-2.201l7.67-2.402l-25.957-7.443
	c0,0,21.527,3.924,26.225,1.423c0,0-24-5.406-30.085-9.16c0,0,19.145,6.593,29.214,2.354c0,0-16.973-0.758-23.447-4.305
	c0,0,16.064,1.522,23.236-2.577c0,0-11.547-0.005-16.74-2.277l9-1.715c0,0-18.591,0.665-23.607-2.539c0,0,22.008,1.717,30.104-2.314
	l-10.105-0.495l10.321-4.934c0,0-31.938,3.009-39.978,0.298c0,0,28.271-1.621,38.378-7.278c0,0-32.773,4.018-38.966,1.437
	c0,0,19.429,1.409,39.787-9.423c0,0-34.535,4.949-41.225,3.755c0,0,25.211-2.787,41.651-11.537l-33.271,5.398l28.149-10.502
	c0,0-42.311,8.529-43.982,7.464c0,0,27.562-10.19,42.562-18.454l-28.805,10.573l28.059-17.729l-23.754,9.284l26.283-14.544
	l-47.865,20.438l49.468-28.845l-52.083,23.801l24.254-13.747l-26.885,10.951l47.687-25.654l-48.058,20.539l49.023-28.043
	l-48.777,24.274l49.721-29.536l-21.426,10.284l21.692-16.299l-32.651,15.976c0,0,28.277-20.079,32.922-25.069l-24.218,12.33
	l19.091-14.357l-20.816,10.799l12.564-11.162c0,0-45.057,25.376-52.457,24.841l-0.906-2.316c0,0,27.079-11.053,47.9-24.929
	l-12.811,5.697c0,0,14.695-10.06,21.744-16.885c0,0-56.924,31.97-60.498,31.356l-1.869-0.965c0,0,46.587-21.712,61.127-36.164
	c0,0-56.197,32.141-64.4,34.27C174.364,160.14,227.837,273.488,230.519,288.003z"/>
<path fill="#7CBC42" d="M182.954,179.345c0,0-10.726,57.451-29.988,104.338c0,0,22.611-60.14,30.301-84.79l-12.607,44.889
	c0,0,14.662-36.748,16.002-57.6l-2.832,6.54l1.471-10.013L182.954,179.345z"/>
<polygon fill="#7CBC42" points="214.802,240.709 200.573,288.554 211.438,243.897 200.13,280.122 207.917,242.695 204.817,249.097 
	208.521,233.98 210.159,236.466 209.571,239.856 211.474,236.326 212.595,239.366 212.913,241.99 214.642,239.394 "/>
<path fill="#7CBC42" d="M178.118,162.898c0,0,13,18.811,17.464,30.143l21.03-13.152l-19.945,11.455l-0.961-1.725l42.211-25.819
	l-43.188,23.264l-2.027-2.278l38.811-24.29l-39.788,21.735l27.901-19.046l-28.916,17.903l29.984-23.505l-17.526,10.443
	l25.231-17.339l-40.926,24.014l6.869-5.893l-8.363,3.893l-4.428-6.594l26.602-14.999l-27.547,14.1L178.118,162.898z"/>
<path fill="#315025" d="M188.432,185.659c0,0-7.536,33.659-12.058,47.53l12.91-41.549l-1.211,8.195l2.632-3.359
	c0,0-19.022,70.814-29.61,90.996c-10.592,20.18-0.767,1.244-0.767,1.244s16.394-29.701,22.237-56.027l8.779-27.881l2.9-3.224
	l-8.655,36.769c0,0,9.135-32.828,11.926-34.877L188.432,185.659z"/>
<path fill="#315025" d="M193.966,185.232l38.932-24.636c0,0-16.05,11.619-20.925,15.051c-4.877,3.436-17.243,11.416-17.243,11.416
	L193.966,185.232z"/>
<polygon fill="#315025" points="203.839,221.513 198.228,241.696 205.411,225.708 202.126,238.785 207.468,229.228 196.753,265.554 
	208.879,230.576 205.198,220.367 "/>
<polygon fill="#315025" points="214.827,247.337 209.216,267.524 216.399,251.535 213.114,264.609 218.454,255.058 207.743,291.383 
	219.87,256.404 216.187,246.194 "/>
<polygon fill="#315025" points="196.54,205.197 192.358,225.836 198.417,209.177 196.054,222.505 200.723,212.432 192.576,249.639 
	202.233,213.604 197.823,203.91 "/>
<path fill="#315025" d="M194.985,193.707c0,0,31.432,72.845,34.963,92.363c0,0-3.025-14.334-4.278-17.442l19.588,4.261
	l-19.479-6.205l6.283,0.01l-6.804-1.201l-1.602-5.44l18.894,4.209l-20.52-8.591l-1.16-3.368l4.27,0.667l9.449-0.205
	c0,0-13.479-0.797-14.785-1.779l-1.281-4.352c0,0,17.667,0.036,20.725-0.543c0,0-20.562-1.221-21.658-1.482l-2.866-6.865
	l19.149-2.426l-19.562-0.707l-1.588-2.512l9.504-2.331l-10.891-0.077l-1.346-2.849c0,0,13.983-3.251,14.663-3.821
	c0.681-0.572-15.345,2.082-15.345,2.082l-0.586-1.992l28.543-7.43l-29.316,3.643l9.182-5.722l-10.621,3.136l-1.109-3.188
	l13.268-6.852l-14.397,4.725l6.271-2.918l-7.061,0.822l12.279-9.052l-13.265,6.851l1.575-2.727l-3.162,0.212l9.463-6.503
	l-10.59,3.047l-1.674-2.605l14.053-7.055l-13.892,5.293l0.452-1.92l16.818-9.79l-17.07,7.198L194.985,193.707z"/>
<path fill="#7CBC42" d="M221.65,233.007c0,0,20.376-2.871,27.542-5.635C249.192,227.373,232.765,234.433,221.65,233.007z"/>
<path fill="#7CBC42" d="M249.308,242.207c0,0-21.244,1.652-22.645,0.931C225.265,242.414,232.146,247.35,249.308,242.207z"/>
<path fill="#7CBC42" d="M252.748,255.057l-23.577-1.087C229.171,253.97,245.675,257.563,252.748,255.057z"/>
<path fill="#7CBC42" d="M218.662,227.465l10.647-1.889l-4.311-0.224l11.385-2.283l-10.328,0.673l22.738-3.499
	C248.794,220.244,224.758,227.998,218.662,227.465z"/>
<path fill="#7CBC42" d="M228.937,281.853c0,0-26.029-79.285-52.349-116.462l0.282-2.109
	C176.87,163.281,204.597,204.464,228.937,281.853z"/>
<path fill="#7CBC42" d="M15.933,213.316c0,0,14.378-23.122,18.652-25.259l-2.526-0.776
	C32.059,187.281,18.069,205.544,15.933,213.316z"/>
<polygon fill="#7CBC42" points="33.419,196.412 21.956,212.539 34.585,196.607 "/>
<path fill="#7CBC42" d="M42.939,190.972l-15.349,23.703C27.591,214.675,36.14,195.83,42.939,190.972z"/>
<path fill="#7CBC42" d="M24.288,180.868c0,0-14.768-16.126-19.236-28.562c0,0,12.823,15.738,27.591,27.979L8.161,157.552
	l23.898,27.007H28.95l-11.27-13.796L24.288,180.868z"/>
<path fill="#7CBC42" d="M0,157.94c0,0,15.35,23.316,20.984,26.813l3.304,0.195C24.288,184.949,6.023,166.878,0,157.94z"/>
<path fill="#3A7137" d="M108.938,100.492c6.736,25.39,52.849,63.212,52.849,63.212l-3.109,1.555l-48.705-47.15
	c2.072,7.254,44.041,47.668,44.041,47.668c-7.253-2.589-55.958-54.923-55.958-54.923c1.555,8.29,48.705,54.923,48.705,54.923
	l-0.001,2.072c-28.498-12.955-81.865-69.429-81.865-69.429c4.146,8.29,26.943,33.16,26.943,33.16l-28.238-27.719
	c6.477,10.363,47.927,52.849,47.927,52.849c-11.4-6.476-54.922-51.555-54.922-51.555c6.478,17.358,62.435,63.73,62.435,63.73
	l-54.145-38.6l48.704,42.227l-74.352-53.626c7.254,11.398,67.357,55.701,67.357,55.701l-70.983-51.556
	c4.404,6.477,70.725,56.476,61.917,50.519c-8.81-5.959-66.321-45.079-66.321-45.079l32.643,27.979
	c-17.617-13.989-36.787-24.87-36.787-24.87C32.254,134.949,69.3,167.85,69.3,167.85c-15.802-8.809-45.078-36.009-45.078-36.009
	l16.062,18.652L24.482,140.13l9.326,11.14l-13.471-7.772l33.894,34.388c-8.038-7.996-37.003-35.424-37.003-35.424
	c6.736,15.285,34.974,40.674,34.974,40.674c-15.285-8.809-37.563-37.565-37.563-37.565c3.107,14.767,24.61,34.456,24.61,34.456
	c-10.622-8.029-29.792-29.792-29.792-29.792c0.26,9.585,20.466,33.16,20.466,33.16l-24.87-26.166
	c3.816,13.598,16.61,26.068,18.617,27.962c-8.921,0.011-14.213-0.242-14.213-0.242c63.73,8.809,157.512-19.689,157.512-19.689
	C128.626,127.954,108.938,100.492,108.938,100.492z"/>
<path fill="#3A7137" d="M22.668,185.727c0,0-8.289,4.663-9.326,8.549l11.398-5.7l-10.88,15.027l15.026-15.027
	c0,0-13.472,18.914-13.472,26.944c0,0,13.212-21.504,17.617-24.353c0,0-11.658,17.617-14.25,27.461l4.146-4.146l-1.555,9.587
	l19.689-27.203c0,0-14.249,23.316-14.249,29.534c0,0,16.839-25.647,23.315-31.348c0,0-15.543,19.688-16.579,32.643
	c0,0,9.067-19.17,15.543-25.388c0,0-9.326,17.874-9.067,27.459c0,0,5.699-13.211,10.362-18.393l-2.849,10.881
	c0,0,8.548-21.502,13.988-26.165c0,0-12.435,24.609-12.694,35.231l5.44-11.398l-0.518,13.473c0,0,12.953-37.564,19.43-45.855
	c0,0-12.436,32.9-12.176,46.373c0,0,12.436-38.86,17.875-45.078c0,0-10.88,21.76-10.88,48.704c0,0,12.435-41.189,16.839-48.444
	c0,0-9.844,29.792-9.844,51.553L86.4,200.753l-4.146,35.752c0,0,12.953-51.297,14.766-52.851c0,0-4.145,34.974-3.886,54.922
	l4.405-36.528l2.59,38.082l3.109-30.311l0.519,34.975l4.664-61.658l2.331,66.321l3.628-67.617l0.777,32.382l3.109-34.453
	l0.258,63.211l4.663-61.916l1.812,65.543l1.555-63.988l2.851,66.839l1.035-27.979l4.406,30.311l1.295-42.745
	c0,0,4.664,39.118,6.995,46.113l0.518-31.865l3.886,26.684l0.26-27.46l4.144,18.133c0,0-1.294-60.104,2.851-68.393l2.589-0.258
	c0,0-3.109,34.712-0.517,63.21l1.036-16.579c0,0,2.072,20.205,4.923,30.568c0,0-1.555-75.906,0.777-79.791l1.812-1.814
	c0,0-2.849,60.623,3.369,82.125c0,0-2.072-75.129,0-85.233C168.782,164.483,37.436,187.541,22.668,185.727z"/>
<path fill="#7CBC42" d="M146.76,167.85c0,0-47.927-31.605-81.865-69.429c0,0,44.561,46.112,63.601,63.211l-35.363-29.534
	c0,0,26.814,29.146,45.467,37.694l-4.664-5.44l8.549,5.051L146.76,167.85z"/>
<polygon fill="#7CBC42" points="74.223,183.654 36.918,151.271 72.927,178.731 44.948,153.602 75.777,175.104 71.373,169.404 
	83.549,178.731 80.44,179.767 77.59,177.954 79.922,181.322 76.554,181.582 73.964,181.062 75.518,183.914 "/>
<path fill="#7CBC42" d="M164.377,167.85c0,0-23.834,8.55-36.528,9.846l1.812,28.497l-0.776-26.686l2.072-0.518l3.109,56.995
	l-0.259-57.254l3.108-1.555l3.369,52.591l-0.519-52.85l3.886,38.342l-2.332-39.118l6.995,42.226l-1.036-23.572l3.627,34.713
	l-2.072-54.92l2.072,9.844l0.518-10.881l8.291-2.85l0.777,35.492l0.518-36.27L164.377,167.85z"/>
<path fill="#315025" d="M138.212,171.996c0,0-27.462-19.949-38.083-29.793l32.125,28.756l-6.995-4.144l1.813,4.144
	c0,0-56.217-45.596-69.688-64.507c-13.472-18.912-0.778-1.295-0.778-1.295s19.431,28.757,40.933,44.3l21.501,19.43l1.555,4.404
	l-29.792-22.28c0,0,25.906,21.503,26.424,25.39L138.212,171.996z"/>
<path fill="#315025" d="M135.88,178.472l3.627,52.85c0,0-2.85-22.281-3.627-29.016c-0.778-6.735-2.072-23.575-2.072-23.575
	L135.88,178.472z"/>
<polygon fill="#315025" points="97.409,177.565 81.477,164.353 92.746,177.954 82.254,169.792 88.472,179.119 60.104,154.638 
	86.528,180.285 97.797,179.507 "/>
<polygon fill="#315025" points="68.069,181.452 52.137,168.239 63.406,181.839 52.914,173.679 59.132,183.005 30.765,158.523 
	57.189,184.171 68.458,183.394 "/>
<polygon fill="#315025" points="116.116,174.705 99.063,162.972 111.506,175.51 100.325,168.322 107.353,177.053 76.906,155.212 
	105.522,178.389 116.677,176.603 "/>
<path fill="#315025" d="M127.525,176.789c0,0-82.966,11.462-102.785,8.938c0,0,14.767,1.359,18.265,0.971l-13.601,20.984
	l15.35-20.207l-3.109,7.189l4.468-7.383h5.83L38.73,207.487l18.07-20.597l3.692-0.193l-2.721,4.663l-4.468,10.881
	c0,0,7.383-15.155,8.938-16.321h4.663c0,0-8.744,20.207-9.714,23.899c0,0,11.269-23.122,12.046-24.288l7.772-0.972l-7.189,22.733
	l10.298-22.149l3.109-0.972l-2.526,11.658l5.44-12.436l3.303-0.583c0,0-3.886,17.099-3.691,18.069
	c0.194,0.973,5.635-18.264,5.635-18.264h2.137l-7.189,35.168l11.076-34.779l0.777,12.435l2.332-13.212l3.497-0.193l-0.194,17.486
	l2.721-18.069l-0.389,8.159l2.72-8.354l2.332,17.099l0.194-17.487l1.749,2.721l1.359-3.691l1.361,13.017l2.397-13.145l3.237-1.038
	l-0.388,18.458l1.942-17.682l1.555,1.166l0.777,22.539l1.749-21.956L127.525,176.789z"/>
<path fill="#7CBC42" d="M77.98,194.081c0,0-7.385,24.286-8.356,33.419C69.624,227.5,71.179,206.322,77.98,194.081z"/>
<path fill="#7CBC42" d="M55.829,222.642c0,0,8.938-24.87,10.298-26.23C67.487,195.051,59.521,201.269,55.829,222.642z"/>
<path fill="#7CBC42" d="M42.228,222.253l12.63-26.618C54.857,195.635,43.394,213.316,42.228,222.253z"/>
<path fill="#7CBC42" d="M84.585,192.526l-3.498,12.823l2.332-4.857l-3.497,13.795l4.468-12.046l-7.965,27.202
	C76.425,229.443,81.087,199.327,84.585,192.526z"/>
<path fill="#7CBC42" d="M29.146,185.985c0,0,86.269-3.107,133.678-20.725l1.813,1.035
	C164.637,166.295,112.824,184.171,29.146,185.985z"/>
<path fill="#325528" d="M80.816,147.989c25.059-7.875,81.671,10.891,81.671,10.891l-0.346-3.458l-65.88-15.972
	c7.239-2.125,63.827,11.752,63.827,11.752c-6.065-4.747-76.326-17.949-76.326-17.949c7.837-3.116,72.45,11.816,72.45,11.816
	l1.75-1.106c-26.177-17.164-102.43-32.093-102.43-32.093c9.222-0.928,42.426,5.052,42.426,5.052l-38.52-9.057
	c12.221-0.061,70.281,12.27,70.281,12.27c-11.566-6.175-72.925-18.873-72.925-18.873c18.133-3.802,87.23,18.717,87.23,18.717
	l-61.56-25.139l61.718,18.602L59.125,79.253c13.51,0.042,83.074,27.169,83.074,27.169L60.69,73.974
	c7.83,0.262,85.531,29.601,75.788,25.34c-9.743-4.262-73.542-31.97-73.542-31.97l41.094,12.64
	C82.79,72.568,63.349,62.18,63.349,62.18c5.615,2.58,53.221,16.312,53.221,16.312c-15.889-8.65-54.525-18.859-54.525-18.859
	l24.35,3.607L69.19,55.421l14.399,1.93l-13.768-7.233L117,60.39c-11.054-2.521-49.715-12.346-49.715-12.346
	c16.518-2.473,53.068,7.827,53.068,7.827c-15.612-8.214-51.825-11.678-51.825-11.678c14.142-5.264,42.275,2.39,42.275,2.39
	c-12.463-4.686-41.102-9.261-41.102-9.261c8.24-4.903,38.963-0.422,38.963-0.422l-35.406-7.039
	c13.533-4.041,30.911,0.109,33.585,0.794c-4.759-7.547-7.8-11.885-7.8-11.885c41.5,49.161,67.528,143.661,67.528,143.661
	C114.551,149.957,80.816,147.989,80.816,147.989z"/>
<path fill="#3A7137" d="M106.762,29.524c0,0-0.489-9.501,2.242-12.453l1.274,12.681l6.885-17.227l-4.67,20.731
	c0,0,8.788-21.495,15.574-25.786c0,0-11.115,22.659-11.169,27.905c0,0,8.663-19.269,15.597-26.719l-1.289,5.719l7.271-6.437
	l-12.471,31.179c0,0,12.094-24.503,17.35-27.825c0,0-12.681,27.939-14.037,36.458c0,0,8.337-23.658,18.732-31.458
	c0,0-11.36,17.91-13.154,26.707c0,0,10.124-17.436,18.364-22.341c0,0-8.122,11.878-10.009,18.588l7.674-8.222
	c0,0-13.606,18.716-14.639,25.806c0,0,14.154-23.663,22.995-29.556l-6.727,10.688l11.11-7.637c0,0-24.828,31.023-28.375,40.927
	c0,0,21.164-28.092,32.689-35.071c0,0-26.202,31.276-28.549,39.197c0,0,12.578-20.825,35.352-35.224
	c0,0-28.169,32.524-31.949,40.121c0,0,19.921-24.239,38.314-35.867l-27.629,30.952l28.003-22.609c0,0-36.435,38.36-36.78,40.724
	c0,0,27.347-22.193,44.345-32.635l-28.521,23.244l33.572-18.16l-23.957,18.825l29.839-18.251l-49.625,36.888l57.304-33.467
	l-55.214,39.198l27.786-16.648l-27.461,21.04l53.566-33.56l-49.842,37.027l56.37-33.493l-53.256,35.509l58.018-33.308
	l-23.096,15.827l27.975-12.475l-35.438,23.939c0,0,35.558-16.964,42.716-18.732l-26.658,17.466l24.631-10.974l-23.072,14.894
	l17.543-6.186c0,0-51.494,31.022-56.287,38.956l1.167,2.329c0,0,27.68-21.179,53.15-34.218l-13.458,9.736
	c0,0,18.186-9.045,28.467-12.176c0,0-64.988,39.249-67.027,43.297l-0.564,2.501c0,0,49.719-34.804,71.216-41.04
	c0,0-64.61,38.397-72.042,45.548C166.886,164.377,116.187,41.035,106.762,29.524z"/>
<path fill="#7CBC42" d="M157.962,143.963c0,0-52.325-23.621-102.43-32.093c0,0,62.788,13.021,87.416,19.979l-43.861-14.108
	c0,0,38.962,7.087,56.156,18.286l-7.089-1.032l8.839,4.525L157.962,143.963z"/>
<polygon fill="#7CBC42" points="132.559,74.207 85.252,59.979 127.705,75.743 91.514,65.521 126.163,80.089 118.992,79.412 
	133.381,84.721 132.596,81.539 129.541,80.099 133.633,80.271 132.052,77.285 130.23,75.374 133.47,75.163 "/>
<path fill="#315025" d="M156.899,134.523c0,0-31.537-12.552-45.534-16.27l41.473,11.787l-7.24-3.697l4.471-0.681
	c0,0-68.582-23.152-91.765-24.434c-23.183-1.281-1.509,0.035-1.509,0.035s34.689,1.057,59.318,10.926l27.912,7.791l4.553-1.04
	l-34.751-13.275c0,0,32.017,10.406,35.58,8.77L156.899,134.523z"/>
<path fill="#315025" d="M161.128,129.092l46.607-25.176c0,0-20.355,9.497-26.463,12.439c-6.109,2.942-21.035,10.846-21.035,10.846
	L161.128,129.092z"/>
<polygon fill="#315025" points="139.802,97.058 120.12,90.653 137.638,92.91 125.134,88.402 136.34,88.673 100.488,77.779 
	136.286,86.407 141.651,96.348 "/>
<polygon fill="#315025" points="127.409,70.183 107.727,63.776 125.245,66.034 112.741,61.527 123.945,61.797 88.094,50.903 
	123.893,59.531 129.259,69.474 "/>
<polygon fill="#315025" points="147.38,114.401 128.352,106.253 145.598,110.072 133.547,104.463 144.684,105.738 109.953,91.672 
	144.834,103.476 149.286,113.859 "/>
<path fill="#315025" d="M155.239,122.93c0,0-34.646-76.253-47.372-91.655c0,0,9.042,11.756,10.582,14.918l10.468-22.709
	l-8.876,23.771l4.416-6.469l-3.853,7.723l3.113,4.927l10.021-21.965l-7.752,26.278l1.808,3.224l2.487-4.791l6.81-9.593
	c0,0-8.865,14.339-9.019,16.277l2.49,3.94c0,0,12.409-18.188,15.009-20.981c0,0-13.522,21.879-14.091,23.162l3.333,7.088
	l15.372-18.225l-13.219,20.541l0.84,3.146l8.505-8.364l-7.604,11.244l1.272,3.104c0,0,12.375-12.421,13.301-12.777
	c0.925-0.354-12.427,14.523-12.427,14.523l1.142,1.805l25.885-24.869l-23.479,27.947l10.925-5.989l-9.921,9.032l1.704,3.06
	l14.678-9.51l-13.82,11.956l6.69-4.689l-5.609,6.764l15.698-7.166l-14.676,9.508l3.235,0.024l-2.393,3.124l11.73-5.81l-9.831,9.052
	l0.853,3.292l15.394-10.194l-13.907,11.093l1.815,0.691l19.465-11.389l-17.623,13.21L155.239,122.93z"/>
<path fill="#7CBC42" d="M143.38,71.811c0,0,16.582-19.22,23.782-24.921C167.162,46.889,150.092,59.521,143.38,71.811z"/>
<path fill="#7CBC42" d="M155.685,37.825c0,0-16.247,20.845-16.668,22.722C138.593,62.42,139.59,52.367,155.685,37.825z"/>
<path fill="#7CBC42" d="M148.087,26.536l-15.75,24.9C132.337,51.436,141.156,32.297,148.087,26.536z"/>
<path fill="#7CBC42" d="M145.595,78.225l8.97-9.81l-2.859,4.567l9.79-10.327l-7.794,10.213l18.736-21.271
	C172.438,51.598,149.474,71.634,145.595,78.225z"/>
<path fill="#7CBC42" d="M110.44,34.859c0,0,43.473,74.58,53.917,124.065l1.845,0.98C166.202,159.905,153.623,106.558,110.44,34.859z
	"/>
<path fill="#3A7137" d="M195.376,249.441c3.709-26.004-23.985-78.827-23.985-78.827l3.469-0.218l26.438,62.42
	c0.924-7.486-21.941-61.078-21.941-61.078c5.666,5.215,30.081,72.408,30.081,72.408c1.805-8.238-23.401-69.578-23.401-69.578
	l0.809-1.906c21.178,23.049,48.27,95.875,48.27,95.875c-0.58-9.25-11.862-41.048-11.862-41.048l15.181,36.544
	c-1.921-12.069-23.498-67.364-23.498-67.364c7.968,10.413,30.441,68.903,30.441,68.903c0.812-18.51-32.607-83.045-32.607-83.045
	l34.783,56.672l-28.359-57.888l47.524,78.394c-2.23-13.324-40.272-77.574-40.272-77.574l45.229,75.175
	c-1.526-7.685-43.072-79.604-37.287-70.679c5.784,8.924,43.466,67.389,43.466,67.389l-19.134-38.502
	c10.76,19.756,24.162,37.256,24.162,37.256c-3.455-5.123-24.722-49.873-24.722-49.873c11.11,14.277,27.448,50.747,27.448,50.747
	l-7.508-23.442l10.506,15.709l-4.24-13.896l9.371,12.412l-17.784-44.89c4.278,10.5,20.24,47.057,20.24,47.057
	c-0.235-16.697-16.323-51.097-16.323-51.097c10.635,14.075,19.923,49.247,19.923,49.247c2.9-14.808-9.211-41.33-9.211-41.33
	c6.646,11.541,15.801,39.06,15.801,39.06c3.503-8.928-5.899-38.519-5.899-38.519l12.685,33.798
	c1.794-14.009-5.118-30.483-6.227-33.013c8.219,3.473,12.991,5.772,12.991,5.772c-55.236-32.985-152.705-43.352-152.705-43.352
	C187.964,216.472,195.376,249.441,195.376,249.441z"/>
<path fill="#3A7137" d="M308.069,204.638c0,0,9.453-1.057,11.924-4.23l-12.719,0.798l15.883-9.587l-19.701,7.971
	c0,0,19.787-12.158,22.922-19.551c0,0-20.558,14.643-25.726,15.547c0,0,17.608-11.672,23.838-19.724l-5.435,2.2l5.173-8.219
	l-28.745,17.359c0,0,22.22-15.907,24.645-21.631c0,0-25.514,17.042-33.701,19.762c0,0,21.996-12.062,28.006-23.583
	c0,0-15.83,14.111-24.222,17.308c0,0,15.564-12.816,19.068-21.743c0,0-10.404,9.939-16.721,12.89l6.872-8.905
	c0,0-16.265,16.46-23.094,18.629c0,0,21.055-17.802,25.439-27.481l-9.459,8.37l5.736-12.199c0,0-26.59,29.526-35.787,34.632
	c0,0,24.291-25.438,29.311-37.941c0,0-26.616,30.923-34.054,34.525c0,0,18.512-15.788,29.03-40.595c0,0-27.527,33.069-34.414,38.03
	c0,0,20.693-23.586,29.186-43.622l-26.066,32.281l17.771-31.298c0,0-31.947,42.171-34.225,42.895c0,0,17.469-30.581,25.016-49.047
	l-18.311,31.91l12.477-36.069l-14.691,26.69l13.174-32.401l-28.359,54.947l23.738-61.972l-29.73,60.837l11.923-30.118
	l-16.309,30.508l24.432-58.296l-28.459,55.183l23.915-61.052l-26.408,58.308l23.464-62.651L222.8,129.658l7.777-29.626
	l-17.879,38.849c0,0,10.977-37.834,11.562-45.185l-12.915,29.136l6.837-26.083l-10.957,25.18l3.26-18.314
	c0,0-22.266,55.843-29.317,61.856l-2.487-0.774c0,0,16.413-30.744,25.152-57.992l-7.427,14.857c0,0,5.978-19.412,7.401-30.065
	c0,0-28.197,70.492-31.861,73.158l-2.377,0.963c0,0,26.284-54.703,28.953-76.926c0,0-27.416,69.98-33.269,78.473
	C165.254,167.166,295.183,197.203,308.069,204.638z"/>
<path fill="#7CBC42" d="M186.845,172.662c0,0,31.789,47.805,48.27,95.875c0,0-23.025-59.85-33.883-83.021l21.029,40.994
	c0,0-13.309-37.299-27.145-52.451l2.168,6.828l-5.898-7.988L186.845,172.662z"/>
<polygon fill="#7CBC42" points="259.798,186.425 281.503,230.8 259.065,191.463 275.019,225.519 255.028,193.689 256.857,200.655 
	249.286,187.318 252.556,187.576 254.47,190.358 253.638,186.347 256.841,187.422 259.021,188.912 258.704,185.679 "/>
<path fill="#7CBC42" d="M170.624,165.786c0,0,25.279,1.429,37.473,5.192l9.452-26.943l-9.698,24.87l-2.109-0.331l19.385-53.688
	l-22.109,52.815l-3.471,0.217l17.428-49.733l-20.15,48.86l11.386-36.819l-13.121,36.927l10.042-41.607l-8.247,22.107l10.21-33.374
	l-19.527,51.372l1.934-9.871l-4.726,9.815l-8.744-0.612l13.137-32.98l-14.634,33.19L170.624,165.786z"/>
<path fill="#315025" d="M196.332,172.181c0,0,17.497,29.087,23.434,42.295l-18.353-39.014l4.822,6.547l-0.053-4.525
	c0,0,33.961,63.924,38.984,86.594c5.021,22.667,0.209,1.494,0.209,1.494s-6.664-34.061-20.396-56.764l-12.212-26.281l0.289-4.662
	l18.73,32.14c0,0-15.457-29.905-14.42-33.686L196.332,172.181z"/>
<path fill="#315025" d="M201.007,167.129l17.287-50.072c0,0-6.072,21.624-7.984,28.127c-1.912,6.507-7.293,22.516-7.293,22.516
	L201.007,167.129z"/>
<polygon fill="#315025" points="236.074,182.982 245.583,201.362 240.517,184.443 246.991,196.05 244.907,185.037 261.469,218.65 
	247.153,184.723 236.474,181.039 "/>
<polygon fill="#315025" points="264.601,190.853 274.112,209.238 269.046,192.316 275.521,203.924 273.437,192.912 289.997,226.524 
	275.681,192.595 265.001,188.914 "/>
<polygon fill="#315025" points="217.731,178.313 228.854,195.769 222.292,179.371 229.778,190.353 226.716,179.57 246.225,211.564 
	228.924,179.055 217.956,176.345 "/>
<path fill="#315025" d="M208.04,171.941c0,0,80.861,21.828,98.121,31.889c0,0-13.064-7.016-16.437-8.021l20.714-14.012
	l-22.02,12.612l5.666-5.405l-6.995,5.055l-5.366-2.275l20.051-13.449l-24.676,11.91l-3.475-1.263l4.326-3.229l8.359-8.275
	c0,0-12.712,11.072-14.598,11.539l-4.293-1.818c0,0,15.937-15.193,18.273-18.213c0,0-19.4,16.889-20.573,17.658l-7.535-2.141
	l15.493-18.123l-18.125,16.375l-3.242-0.319l6.875-9.748l-9.863,9.327l-3.267-0.753c0,0,10.249-14.226,10.45-15.195
	c0.2-0.972-12.316,14.614-12.316,14.614l-1.965-0.833l20.342-29.573l-23.77,27.697l4.138-11.75l-7.303,11.254l-3.298-1.186
	l7.005-16.024l-9.558,15.573l3.543-7.36l-5.766,6.63l4.528-16.651l-7.005,16.022l-0.548-3.188l-2.694,2.869l3.831-12.516
	l-7.338,11.166l-3.388-0.307l7.564-16.843l-8.693,15.52l-0.975-1.679l8.084-21.056l-10.182,19.532L208.04,171.941z"/>
<path fill="#7CBC42" d="M260.407,175.358c0,0,16.277-19.478,20.736-27.507C281.144,147.851,271.445,166.742,260.407,175.358z"/>
<path fill="#7CBC42" d="M291.948,157.708c0,0-17.936,19.409-19.72,20.131C270.447,178.56,280.206,175.945,291.948,157.708z"/>
<path fill="#7CBC42" d="M304.319,163.374l-22.018,19.578C282.302,182.952,299.757,171.149,304.319,163.374z"/>
<path fill="#7CBC42" d="M253.718,174.21l8.227-10.441l-4.043,3.563l8.604-11.337l-8.814,9.348l17.951-21.935
	C275.642,143.409,259.593,169.314,253.718,174.21z"/>
<path fill="#7CBC42" d="M302.208,201.873c0,0-80.64-30.811-131.164-33.098l-1.266-1.66
	C169.778,167.115,224.459,170.881,302.208,201.873z"/>
<path fill="#315025" d="M88.931,199.434c26.037,3.467,78.599-24.718,78.599-24.718l0.251,3.465l-62.172,27.02
	c7.495,0.855,60.871-22.51,60.871-22.51c-5.162,5.715-72.125,30.756-72.125,30.756c8.255,1.729,69.356-24.051,69.356-24.051
	l1.914,0.79c-22.85,21.396-95.419,49.165-95.419,49.165c9.242-0.667,40.934-12.246,40.934-12.246l-36.4,15.521
	c12.052-2.034,67.142-24.126,67.142-24.126c-10.338,8.064-68.616,31.085-68.616,31.085c18.516,0.639,82.736-33.383,82.736-33.383
	l-56.345,35.312l57.621-28.899l-77.946,48.253c13.303-2.354,77.194-40.995,77.194-40.995l-74.749,45.929
	c7.669-1.597,79.198-43.812,70.326-37.944c-8.868,5.867-66.979,44.094-66.979,44.094l38.321-19.492
	c-19.653,10.943-37.028,24.51-37.028,24.51c5.091-3.505,49.64-25.188,49.64-25.188c-14.172,11.243-50.488,27.922-50.488,27.922
	l23.371-7.728l-15.609,10.652l13.854-4.369l-12.324,9.486l44.721-18.204c-10.459,4.378-46.866,20.679-46.866,20.679
	c16.697-0.391,50.943-16.8,50.943-16.8c-13.974,10.767-49.058,20.384-49.058,20.384c14.833,2.762,41.241-9.598,41.241-9.598
	c-11.478,6.754-38.909,16.165-38.909,16.165c8.958,3.42,38.461-6.259,38.461-6.259l-33.678,13
	c14.024,1.664,30.436-5.402,32.953-6.534c-3.396,8.251-5.65,13.044-5.65,13.044c32.468-55.541,41.923-153.104,41.923-153.104
	C121.829,191.716,88.931,199.434,88.931,199.434z"/>
<path fill="#315025" d="M134.783,311.705c0,0,1.146,9.445,4.342,11.885l-0.917-12.711l9.735,15.792l-8.154-19.624
	c0,0,12.341,19.672,19.762,22.736c0,0-14.833-20.419-15.784-25.579c0,0,11.835,17.501,19.945,23.652l-2.252-5.412l8.268,5.094
	l-17.625-28.58c0,0,16.112,22.07,21.86,24.44c0,0-17.28-25.354-20.077-33.515c0,0,12.267,21.881,23.842,27.785
	c0,0-14.258-15.699-17.533-24.059c0,0,12.962,15.442,21.921,18.863c0,0-10.037-10.312-13.045-16.599l8.968,6.787
	c0,0-16.61-16.11-18.843-22.918c0,0,17.998,20.889,27.717,25.181l-8.457-9.379l12.252,5.622c0,0-29.774-26.313-34.964-35.461
	c0,0,25.664,24.05,38.213,28.951c0,0-31.171-26.324-34.843-33.729c0,0,15.961,18.365,40.865,28.65c0,0-33.325-27.217-38.35-34.057
	c0,0,23.778,20.471,43.893,28.776l-32.522-25.765l31.461,17.48c0,0-42.466-31.555-43.212-33.822c0,0,30.743,17.182,49.28,24.557
	l-32.081-18.014l36.187,12.141l-26.828-14.443l32.523,12.871l-55.21-27.844l62.191,23.158l-61.112-29.162l30.227,11.643
	l-30.659-16.025l58.522,23.889l-55.447-27.942l61.273,23.343L171.562,214.5l62.868,22.879l-25.467-11.638l29.697,7.498
	l-39.014-17.515c0,0,37.936,10.623,45.291,11.14l-29.256-12.642l26.146,6.593l-25.281-10.722l18.344,3.089
	c0,0-56.049-21.743-62.128-28.738l0.751-2.493c0,0,30.896,16.123,58.225,24.607l-14.926-7.287c0,0,19.466,5.797,30.131,7.12
	c0,0-70.752-27.538-73.452-31.176l-0.984-2.368c0,0,54.946,25.773,77.192,28.234c0,0-70.231-26.763-78.779-32.535
	C170.921,168.546,142.098,298.75,134.783,311.705z"/>
<path fill="#315025" d="M166.194,199.669c0,0-28.921,17.769-42.072,23.827l38.84-18.715l-6.5,4.884l4.522-0.096
	c0,0-63.603,34.557-86.224,39.79c-22.62,5.235-1.493,0.226-1.493,0.226s33.996-6.983,56.57-20.926l26.167-12.457l4.664,0.244
	l-31.963,19.031c0,0,29.761-15.734,33.55-14.732L166.194,199.669z"/>
<path fill="#315025" d="M171.292,204.296l50.229,16.82c0,0-21.68-5.869-28.2-7.722c-6.523-1.853-22.582-7.083-22.582-7.083
	L171.292,204.296z"/>
<polygon fill="#315025" points="155.767,239.511 137.475,249.192 154.347,243.966 142.8,250.55 153.794,248.365 120.337,265.238 
	154.128,250.607 157.712,239.892 "/>
<polygon fill="#315025" points="148.162,268.109 129.868,277.792 146.74,272.57 135.194,279.15 146.187,276.963 112.729,293.839 
	146.523,279.207 150.105,268.49 "/>
<polygon fill="#315025" points="160.263,221.126 142.911,232.41 159.249,225.695 148.337,233.285 159.091,230.123 127.282,249.928 
	159.625,232.324 162.235,221.332 "/>
<path fill="#315025" d="M166.546,211.376c0,0-21.073,81.061-30.972,98.414c0,0,6.895-13.131,7.869-16.512l14.205,20.58
	l-12.818-21.898l5.459,5.616l-5.12-6.948l2.225-5.389l13.634,19.925l-12.138-24.562l1.229-3.486l3.271,4.296l8.351,8.282
	c0,0-11.189-12.608-11.674-14.491l1.779-4.309c0,0,15.342,15.795,18.383,18.102c0,0-17.069-19.24-17.85-20.408l2.07-7.553
	l18.267,15.324l-16.542-17.973l0.289-3.244l9.812,6.783l-9.419-9.775l0.724-3.274c0,0,14.318,10.115,15.291,10.31
	c0.974,0.189-14.729-12.182-14.729-12.182l0.815-1.973l29.761,20.066l-27.918-23.513l11.788,4.028l-11.321-7.195l1.155-3.31
	l16.089,6.855l-15.663-9.413l7.394,3.476l-6.684-5.702l16.694,4.371l-16.088-6.855l3.183-0.578l-2.896-2.666L177,228.308
	l-11.234-7.234l0.276-3.389l16.912,7.408l-15.6-8.549l1.669-0.991l21.131,7.886l-19.626-9.998L166.546,211.376z"/>
<path fill="#7CBC42" d="M163.617,263.771c0,0,19.628,16.096,27.7,20.479C191.316,284.25,172.337,274.73,163.617,263.771z"/>
<path fill="#7CBC42" d="M181.561,295.146c0,0-19.575-17.754-20.313-19.529C160.51,273.841,163.214,283.577,181.561,295.146z"/>
<path fill="#7CBC42" d="M176.012,307.571l-19.784-21.835C156.228,285.736,168.193,303.081,176.012,307.571z"/>
<path fill="#7CBC42" d="M164.702,257.071l10.518,8.129l-3.601-4.009l11.416,8.498l-9.43-8.727l22.102,17.745
	C195.707,278.708,169.652,262.902,164.702,257.071z"/>
<path fill="#7CBC42" d="M137.495,305.818c0,0,30.055-80.923,31.869-131.467l1.65-1.281
	C171.015,173.07,167.759,227.785,137.495,305.818z"/>
<path fill="#325226" d="M255.304,130.447c-21.236-6.378-64.673,13.658-64.673,13.658l-0.149-3.276l51.275-17.783
	c-6.117-1.705-50.14,13.725-50.14,13.725c4.312-4.727,59.475-20.084,59.475-20.084c-6.724-2.61-57.104,14.143-57.104,14.143
	l-1.552-0.969c19.027-17.262,78.819-34.497,78.819-34.497c-7.57-0.491-33.672,6.523-33.672,6.523l30.016-10.134
	c-9.887,0.452-55.294,14.483-55.294,14.483c8.583-6.301,56.61-20.813,56.61-20.813c-15.135-2.83-68.195,21.257-68.195,21.257
	l46.643-26.243l-47.584,20.093l64.517-35.75c-10.919,0.599-63.784,29.051-63.784,29.051l61.861-33.962
	c-6.298,0.571-65.467,31.445-58.121,27.026c7.348-4.421,55.481-33.18,55.481-33.18l-31.649,13.618
	c16.248-7.871,30.674-18.466,30.674-18.466c-4.22,2.664-40.999,17.581-40.999,17.581c11.771-8.811,41.735-20.036,41.735-20.036
	l-19.236,4.411l12.936-8.083l-11.4,2.418l10.23-7.389l-36.865,11.64c8.625-2.835,38.659-13.7,38.659-13.7
	c-13.662-1.645-41.931,9.58-41.931,9.58c11.602-8.388,40.447-13.156,40.447-13.156c-12.09-4.374-33.883,4.007-33.883,4.007
	c9.495-4.933,32.078-10.435,32.078-10.435c-7.271-4.278-31.553,1.222-31.553,1.222l27.749-8.103
	c-11.442-3.246-24.976,1.387-27.052,2.142c2.909-7.309,4.828-11.521,4.828-11.521c-27.438,48.046-36.729,138.173-36.729,138.173
	C228.276,133.705,255.304,130.447,255.304,130.447z"/>
<path fill="#3A7137" d="M219.597,19.896c0,0-0.785-8.971-3.361-11.641l0.549,12.001l-7.71-15.947l6.354,19.34
	c0,0-9.777-19.888-15.799-23.65c0,0,11.805,20.89,12.502,25.83c0,0-9.399-17.796-15.933-24.529l1.753,5.336l-6.68-5.764
	l13.959,28.86c0,0-12.823-22.584-17.486-25.498c0,0,13.727,25.8,15.883,33.772c0,0-9.684-21.949-19.057-28.866
	c0,0,11.41,16.405,13.955,24.62c0,0-10.354-16.009-17.625-20.288c0,0,8.043,10.854,10.403,17.099l-7.228-7.429
	c0,0,13.33,17.071,15.046,23.709c0,0-14.386-21.708-22.266-26.896l6.767,9.792l-9.932-6.735c0,0,23.931,28.203,28.031,37.387
	c0,0-20.605-25.591-30.79-31.689c0,0,25.071,28.382,27.956,35.749c0,0-12.76-19.1-32.963-31.723c0,0,26.819,29.478,30.82,36.479
	c0,0-19.121-22.014-35.438-32.207l26.186,28.019l-25.45-20.142c0,0,34.226,34.634,34.799,36.848c0,0-24.868-19.777-39.909-28.91
	l25.947,20.718l-29.399-15.719l21.711,16.744L148.801,58.61l44.706,32.698l-50.489-29.157l49.512,34.645l-24.535-14.534
	l24.818,18.683l-47.48-29.395l44.902,32.82l-49.74-29.22l47.472,31.248L136.92,77.422l20.64,13.955l-24.167-10.593l31.627,21.085
	c0,0-30.855-14.508-36.861-15.876l23.721,15.352l-21.275-9.318l20.503,13.074L136.157,100c0,0,45.488,27.096,50.35,34.371
	l-0.654,2.244c0,0-25.012-18.808-47.226-30.038l12.093,8.618c0,0-15.828-7.771-24.529-10.292c0,0,57.421,34.283,59.573,38.015
	l0.768,2.333c0,0-44.523-30.731-62.678-35.712c0,0,57.009,33.498,63.909,39.927C187.761,149.465,213.411,31.135,219.597,19.896z"/>
<path fill="#7CBC42" d="M186.675,144.282c0,0,1.383-23.517,4.56-34.515l-21.958-11.865l20.261,11.862l-0.289,1.941l-43.751-24.156
	l43.014,26.607l0.148,3.275l-40.533-21.877l39.796,24.332l-30.019-14.78l30.092,16.418l-33.947-14.054l18.016,10.194l-27.214-13.292
	l41.856,24.029l-8.059-2.913l7.989,5.521l-0.573,8.122l-26.866-15.988l27.024,17.413L186.675,144.282z"/>
<path fill="#315025" d="M192.121,120.919c0,0,23.935-13.139,34.788-17.224l-32.062,12.83l5.393-3.784l-3.699-0.457
	c0,0,52.566-24.664,71.15-26.835c18.582-2.169,1.225-0.029,1.225-0.029S241,87.856,222.317,98.18l-21.598,8.499l-3.811-0.79
	l26.445-13.952c0,0-24.592,11.134-27.676,9.741L192.121,120.919z"/>
<path fill="#315025" d="M188.026,115.977l-40.812-21.787c0,0,17.637,8.103,22.941,10.621c5.306,2.518,18.355,9.346,18.355,9.346
	L188.026,115.977z"/>
<polygon fill="#315025" points="201.284,84.905 216.399,78.053 202.518,80.907 212.064,76.141 203.04,76.861 230.671,65.105 
	202.802,74.723 199.7,84.313 "/>
<polygon fill="#315025" points="207.961,59.067 223.076,52.213 209.196,55.067 218.743,50.3 209.719,51.021 237.349,39.266 
	209.479,48.884 206.378,58.475 "/>
<polygon fill="#315025" points="197.315,101.562 211.685,93.095 198.218,97.411 207.262,91.623 198.417,93.287 224.747,78.591 
	198.014,91.163 195.706,101.13 "/>
<path fill="#315025" d="M192.021,109.926c0,0,18.527-73.292,26.899-88.334c0,0-5.848,11.453-6.699,14.498l-11.285-20.964
	l10.131,22.032l-4.375-5.912l4.076,7.116l-1.904,4.772l-10.832-20.283l9.535,24.441l-1.062,3.113l-2.607-4.411l-6.697-8.756
	c0,0,8.951,13.144,9.316,14.962l-1.523,3.819c0,0-12.295-16.624-14.744-19.149c0,0,13.652,20.057,14.271,21.24l-1.812,6.818
	l-14.694-16.536l13.241,18.807l-0.287,3l-7.916-7.528l7.545,10.279l-0.642,2.978c0,0-11.55-11.191-12.343-11.488
	c-0.793-0.296,11.854,13.17,11.854,13.17l-0.699,1.748L174.747,57l22.458,25.357l-9.578-5.188l9.146,8.098l-0.998,2.955
	l-13.049-8.35l12.658,10.69l-5.99-4.141l5.375,6.141l-13.582-6.102l13.047,8.352l-2.611,0.158l2.324,2.845l-10.205-4.987
	l9.072,8.118l-0.28,3.139l-13.713-8.966l12.622,9.876l-1.381,0.725l-17.154-9.923l15.891,11.716L192.021,109.926z"/>
<path fill="#7CBC42" d="M195.252,61.263c0,0-15.796-17.422-22.327-22.496C172.925,38.767,188.299,49.961,195.252,61.263z"/>
<path fill="#7CBC42" d="M181.077,29.75c0,0,15.727,18.967,16.301,20.719C197.954,52.216,195.896,42.783,181.077,29.75z"/>
<path fill="#7CBC42" d="M185.815,18.797l15.83,22.808C201.646,41.605,192.137,23.937,185.815,18.797z"/>
<path fill="#7CBC42" d="M194.259,67.399l-8.473-8.872l2.879,4.186l-9.199-9.326l7.572,9.301l-17.791-19.264
	C169.247,43.424,190.303,61.351,194.259,67.399z"/>
<path fill="#7CBC42" d="M217.287,25.075c0,0-25.872,72.081-28.161,119.148l-1.37,1C187.756,145.224,191.291,94.432,217.287,25.075z"
	/>
<path fill="#2A431D" d="M207.669,186.878c-14.078-12.164-51.097-10.425-51.097-10.425l0.961-2.362l42.426,2.293
	c-4.061-3.318-40.394-4.863-40.394-4.863c4.325-2.201,50.653,2.793,50.653,2.793c-4.377-4.32-47.175-6.424-47.175-6.424
	l-0.672-1.142c18.998-7.734,75.898-4.054,75.898-4.054c-6.849-2.893-32.686-4.849-32.686-4.849l31.058,0.419
	c-9.374-2.687-52.255-4.026-52.255-4.026c8.869-2.732,56.771-1.321,56.771-1.321c-12.783-7.085-65.178-1.409-65.178-1.409
	l47.652-9.417l-46.059,4.354l69.977-14.296c-10.953-2.305-66.972,9.15-66.972,9.15l67.703-14.417
	c-6.534-1.053-69.33,11.528-62.349,9.693c7.264-1.909,63.032-16.394,63.032-16.394l-36.021,5.255
	c18.143-3.41,37.687-10.301,37.687-10.301c-5.679,1.657-45.876,7.155-45.876,7.155c13.882-5.349,47.983-9.448,47.983-9.448
	l-21.134,0.043l16.74-5.137l-12.436-0.019l13.967-5.251l-39.789,3.925c8.69-0.959,42.76-5.668,42.76-5.668
	c-12.778-4.314-43.666,1.258-43.666,1.258c13.913-5.812,44.132-5.237,44.132-5.237c-9.829-6.707-34.33-2.188-34.33-2.188
	c10.953-3.167,36.062-4.844,36.062-4.844c-5.111-5.718-31.211-4.003-31.211-4.003l31.123-3.905
	c-9.882-5.154-25.301-2.353-27.591-1.896c6.366-6.995,10.365-11.108,10.365-11.108C192.159,110.149,153.7,178.086,153.7,178.086
	C185.503,180.306,207.669,186.878,207.669,186.878z"/>
<path fill="#2A431D" d="M227.824,78.841c0,0,3.738-9.2,2.665-12.246l-5.413,12.209l0.749-17.052l-3.607,20.214
	c0,0,0.769-21.127-2.82-25.539c0,0,0.578,22.25-1.132,27.182c0,0,0.085-18.77-2.492-26.183l-0.947,5.504l-3.106-6.387l-1.182,29.772
	c0,0-0.686-23.455-3.303-26.777c0,0,0.021,26.494-1.694,34.28c0,0,1.626-22.118-3.067-29.83c0,0,2.217,17.017,0.737,25.077
	c0,0-1.516-16.442-5.528-21.335c0,0,1.832,11.175,1.078,17.301l-2.608-7.863c0,0,3.403,17.65,1.978,23.949
	c0,0-2.289-22.007-6.285-27.794l1.234,9.86l-4.869-7.441c0,0,6.936,29,6.355,37.861c0,0-5.438-26.201-10.645-33.07
	c0,0,7.591,29.072,6.832,36.016c0,0-2.037-18.984-12.001-33.113c0,0,8.274,29.958,8.511,36.726c0,0-5.546-22.387-13.351-33.641
	l8.176,28.233l-10.513-21.401c0,0,11.36,35.314,10.934,37.264c0,0-10.234-21.336-17.172-31.421l10.299,21.71l-14.259-18.18
	l8.603,17.463l-11.866-17.59l18.45,35.004l-23.221-33.119l20.549,37.239l-11.335-16.858l10.042,20.177l-20.815-32.812l17.856,34.831
	l-21.898-32.907l19.678,33.902l-22.483-32.81l8.063,14.5l-11.115-12.6l12.365,22.083c0,0-13.853-17.062-16.849-19.169l9.096,15.917
	l-9.452-11.062l7.867,13.641l-7.044-6.798c0,0,18.593,30.065,19.274,36.614l-1.125,1.42c0,0-9.233-19.858-18.649-32.818l4.329,8.755
	c0,0-6.637-8.929-10.66-12.468c0,0,22.784,37.733,22.92,40.964l-0.267,1.851c0,0-16.703-32.757-25.151-40.046
	c0,0,22.415,36.903,24.572,43.338C153.111,179.369,216.911,88.934,227.824,78.841z"/>
<path fill="#3A7137" d="M230.294,176.552c-12.039-11.709-48.224-13.435-48.224-13.435l1.044-2.252l40.666,5.978
	c-3.514-3.283-38.484-8.306-38.484-8.306c4.551-1.67,46.979,7.296,46.979,7.296c-3.604-4.104-43.308-10.461-43.308-10.461
	l-0.705-1.192c18.818-4.945,65.012,4.377,65.012,4.377c-4.912-2.978-24.901-7.389-24.901-7.389l23.708,3.686
	c-6.801-3.153-42.211-9.6-42.211-9.6c7.969-1.233,45.309,5.806,45.309,5.806c-9.178-7.191-53.248-9.557-53.248-9.557l40.512-1.326
	l-38.992-3.135l55.84-1.465c-7.543-3.416-53.006-2.779-53.006-2.779l53.434-1.193c-4.432-1.816-54.977-1.76-48.496-2.16
	c6.48-0.402,48.872-2.896,48.872-2.896l-26.022-1.916c13.667,0.393,27.062-1.684,27.062-1.684
	c-3.766,0.316-33.689-2.521-33.689-2.521c10.986-1.803,35.043,1.129,35.043,1.129l-14.466-3.76l11.516-0.91l-8.505-2.36l9.457-1.388
	l-28.836-5.068c6.785,1.11,30.76,4.31,30.76,4.31c-8.603-5.881-31.518-8.221-31.518-8.221c10.725-1.58,31.773,5.301,31.773,5.301
	c-6.595-7.165-24.166-9.151-24.166-9.151c8.104,0.002,25.199,4.203,25.199,4.203c-3.389-5.418-21.625-10.21-21.625-10.21
	l21.475,4.255c-6.553-6.18-17.264-7.798-18.922-8.018c4.508-3.893,7.27-6.052,7.27-6.052c-35.23,22.688-72.979,79.991-72.979,79.991
	C210.999,169.292,230.294,176.552,230.294,176.552z"/>
<path fill="#53A546" d="M244.952,89.797c0,0,2.609-6.302,1.811-8.996l-3.826,8.255l0.395-13.409l-2.493,15.215
	c0,0,0.385-16.78-2.345-21.412c0,0,0.627,18.161-0.631,21.725c0,0-0.094-15.244-2.131-22.051l-0.686,4.197l-2.474-6.207
	l-0.712,24.27c0,0-0.719-19.657-2.834-23.245c0,0,0.203,22.132-1.135,28.243c0,0,1.167-18.131-2.712-26.055
	c0,0,1.932,15.01,0.769,21.419c0,0-1.359-14.374-4.748-19.792c0,0,1.609,10.104,1.012,15.125l-2.258-7.518
	c0,0,2.985,16.128,1.818,21.188c0,0-2.076-19.613-5.557-25.854l1.122,8.945l-4.317-7.997c0,0,6.219,27.313,5.763,34.917
	c0,0-4.896-24.396-9.608-32.054c0,0,6.924,27.834,6.285,33.792c0,0-1.895-17.293-11.055-32.835c0,0,7.713,29.178,7.953,35.281
	c0,0-5.15-21.474-12.549-34.026l7.798,27.978l-10.058-22.43c0,0,10.888,35.234,10.5,36.921c0,0-9.797-21.98-16.707-33.374
	l10.188,22.991l-14.257-20.839l8.734,18.838l-12.152-19.948l18.604,37.597l-23.729-37.238l21.154,40.585l-11.403-18.342
	l10.142,21.227L177.001,98.54l18.693,37.746l-23.202-37.018l20.971,37.588l-24.167-37.313l8.989,16.592l-12.534-15.567
	l13.877,25.222c0,0-15.658-20.535-19.214-23.552l10.571,18.607l-11.036-13.698l9.205,15.951l-8.262-8.653
	c0,0,21.088,34.105,21.81,40.694l-1.223,1.277c0,0-10.229-21.377-21.228-36.688l5.111,10.016c0,0-7.917-10.752-12.881-15.488
	c0,0,26.593,43.105,26.734,46.365l-0.3,1.834c0,0-19.169-36.21-29.625-45.903c0,0,26.59,42.435,28.976,49.166
	C178.267,165.718,236.866,95.186,244.952,89.797z"/>
<path fill="#3A7137" d="M179.351,161.856c0,0,9.148-15.316,15.129-21.595l-10.605-15.647l9.467,15.052l-0.873,1.202l-20.949-31.521
	l19.598,32.911l-1.045,2.252l-19.584-28.867l18.23,30.259l-15-20.427l14.477,21.553l-17.895-21.31l8.539,13.146l-13.637-18.444
	l19.721,30.777l-4.395-4.777l3.437,6.503l-3.224,5.255l-12.461-20.132l12.07,21.146L179.351,161.856z"/>
<path fill="#315025" d="M191.177,148.063c0,0,20.673-0.458,29.393,0.59l-26.026-2.589l4.945-0.657l-2.325-1.6
	c0,0,43.938,1.805,57.184,6.843c13.242,5.039,0.832,0.407,0.832,0.407s-19.605-8.12-35.766-7.717l-17.482-1.84l-2.282-1.864
	l22.644-0.129c0,0-20.414-1.116-21.998-3.13L191.177,148.063z"/>
<path fill="#315025" d="M190.154,143.311l-19.804-28.903c0,0,9.018,11.609,11.7,15.154c2.684,3.547,9.065,12.696,9.065,12.696
	L190.154,143.311z"/>
<polygon fill="#315025" points="209.923,127.069 222.474,127.751 212.149,124.815 220.229,124.951 213.915,122.281 236.587,124.041 
	214.501,120.761 209.065,126.12 "/>
<polygon fill="#315025" points="223.44,112.047 235.992,112.725 225.67,109.79 233.749,109.926 227.435,107.256 250.106,109.016 
	228.021,105.735 222.584,111.097 "/>
<polygon fill="#315025" points="201.432,136.875 214.048,136.208 203.489,134.401 211.591,133.674 205.065,131.7 227.892,131.03 
	205.54,130.129 200.501,136.022 "/>
<path fill="#315025" d="M194.952,140.643c0,0,38.069-42.764,48.953-49.942c0,0-7.934,5.65-9.569,7.398l-0.253-18.032l-0.895,18.345
	l-0.873-5.502l0.251,6.207l-2.95,2.541l-0.187-17.414l-2.137,19.755l-1.802,1.719l-0.211-3.875l-1.438-8.225
	c0,0,1.418,11.96,1.028,13.31l-2.358,2.032c0,0-2.448-15.466-3.213-18.02c0,0,2.162,18.247,2.164,19.26l-3.601,3.946l-4.092-16.245
	l2.321,17.263l-1.242,1.915l-2.686-7.826l1.477,9.544l-1.475,1.776c0,0-3.846-11.556-4.275-12.032
	c-0.43-0.475,3.359,12.992,3.359,12.992l-1.08,0.929l-8.321-23.417l6.224,24.888l-4.621-6.834l3.312,8.637l-1.703,1.637
	l-5.848-10.172l4.768,11.606l-2.578-4.874l1.466,6.003l-6.993-8.847l5.848,10.171l-1.811-0.809l0.566,2.725l-5.113-6.918
	l3.258,8.625l-1.285,2.012l-6.079-10.817l5.026,11.046l-1.181,0.004l-8.055-12.663l6.581,13.424L194.952,140.643z"/>
<path fill="#7CBC42" d="M214.134,109.079c0,0-4.521-17.226-7.134-22.918C207,86.161,213.414,99.056,214.134,109.079z"/>
<path fill="#7CBC42" d="M215.629,82.952c0,0,3.935,18.241,3.708,19.619C219.112,103.946,221.028,96.889,215.629,82.952z"/>
<path fill="#7CBC42" d="M222.642,77.249l2.661,20.856C225.303,98.105,225.091,82.914,222.642,77.249z"/>
<path fill="#7CBC42" d="M211.321,112.854l-2.59-8.923l0.471,3.82l-2.92-9.481l1.836,8.895l-5.219-19.161
	C202.899,88.003,210.778,107.408,211.321,112.854z"/>
<path fill="#7CBC42" d="M241.589,92.469c0,0-42.579,39.384-60.571,70.203l-1.27,0.193
	C179.748,162.865,199.879,129.978,241.589,92.469z"/>
<path fill="#2A431D" d="M170.177,101.22c-9.022,16.271,0.262,52.149,0.262,52.149l-2.508-0.458l-6.449-41.996
	c-2.415,4.654,3.515,40.533,3.515,40.533c-3.041-3.783-7.643-50.153-7.643-50.153c-3.332,5.17,3.375,47.492,3.375,47.492
	l-0.978,0.892c-11.461-17.012-19.515-73.459-19.515-73.459c-1.428,7.295,1.951,32.984,1.951,32.984l-5.953-30.484
	c-0.711,9.726,6.764,51.973,6.764,51.973c-4.492-8.122-12.921-55.298-12.921-55.298c-4.318,13.964,11.971,64.085,11.971,64.085
	L123.07,94.768l13.696,44.189l-28.327-65.566c-0.012,11.195,22.674,63.679,22.674,63.679l-27.982-63.314
	c0.308,6.611,25.485,65.499,22.26,59.042c-3.357-6.719-28.956-58.339-28.956-58.339l12.521,34.181
	c-7.053-17.058-17.802-34.777-17.802-34.777c2.786,5.219,16.402,43.438,16.402,43.438c-8.08-12.493-19.078-45.03-19.078-45.03
	l4.372,20.676l-8.457-15.333l2.529,12.176l-8.001-12.596l11.994,38.142c-2.719-8.31-14.309-40.692-14.309-40.692
	c-1.605,13.392,10.174,42.483,10.174,42.483c-8.537-12.428-14.164-42.124-14.164-42.124c-4.551,10.995,4.89,34.049,4.89,34.049
	c-5.344-10.072-12.128-34.304-12.128-34.304c-4.549,6.175,2.476,31.37,2.476,31.37L57.655,76.454
	c-3.02,10.728,2.882,25.247,3.798,27.395c-8.151-4.798-12.997-7.87-12.997-7.87c49.794,36.139,124.169,59.866,124.169,59.866
	C168.284,124.262,170.177,101.22,170.177,101.22z"/>
<path fill="#2A431D" d="M60.302,103.622c0,0-9.771-1.774-12.534-0.1l13.059,2.798l-16.842,2.76l20.523-0.611
	c0,0-20.836,3.576-24.419,7.992c0,0,21.659-5.125,26.836-4.459c0,0-18.388,3.762-25.118,7.803l5.583-0.201l-5.617,4.35l29.384-4.941
	c0,0-22.817,5.475-25.532,8.717c0,0,25.928-5.447,33.899-5.364c0,0-21.981,2.938-28.569,9.112c0,0,16.202-5.654,24.394-5.857
	c0,0-15.783,4.851-19.75,9.782c0,0,10.562-4.083,16.713-4.601l-7.163,4.165c0,0,16.579-6.946,23.036-6.842
	c0,0-21.072,6.75-25.918,11.846l9.398-3.228l-6.284,6.291c0,0,26.962-12.73,35.757-13.977c0,0-24.534,10.689-30.191,17.192
	c0,0,26.9-13.384,33.852-14.063c0,0-18.163,5.883-29.952,18.528c0,0,27.628-14.236,34.203-15.852c0,0-20.776,10.014-30.192,19.958
	l25.962-13.786l-18.796,14.674c0,0,32.241-18.354,34.236-18.336c0,0-18.79,14.389-27.24,23.245l19.143-14.527l-14.874,17.68
	l15.332-11.998l-14.787,15.217l30.481-25.229l-27.66,29.512l32.238-27.74l-14.178,14.548l17.691-13.962l-27.851,27.096
	l30.434-24.612l-27.724,28.173l29.152-26.206l-27.506,28.728l12.539-10.86l-10.055,13.458l19.084-16.626
	c0,0-13.866,17.056-15.312,20.418l13.718-12.163l-8.893,11.518l11.741-10.494l-5.211,8.287c0,0,25.617-24.357,31.888-26.366
	l1.622,0.811c0,0-17.545,13.104-28.303,24.977l7.684-6.031c0,0-7.38,8.324-10.021,12.987c0,0,32.266-30.029,35.399-30.824
	l1.868-0.119c0,0-28.644,23.06-34.045,32.821c0,0,31.528-29.498,37.385-32.929C174.001,156.159,72.414,112.236,60.302,103.622z"/>
<path fill="#3A7137" d="M117.651,156.208c12.039,11.709,48.223,13.434,48.223,13.434l-1.043,2.254l-40.666-5.979
	c3.513,3.282,38.483,8.307,38.483,8.307c-4.55,1.67-46.979-7.299-46.979-7.299c3.604,4.104,43.308,10.464,43.308,10.464l0.706,1.192
	c-18.818,4.945-65.013-4.379-65.013-4.379c4.913,2.978,24.901,7.39,24.901,7.39l-23.708-3.687
	c6.801,3.156,42.211,9.602,42.211,9.602c-7.969,1.232-45.309-5.807-45.309-5.807c9.179,7.192,53.249,9.559,53.249,9.559
	l-40.513,1.326l38.994,3.134l-55.841,1.466c7.543,3.414,53.008,2.779,53.008,2.779l-53.435,1.19
	c4.432,1.819,54.976,1.762,48.496,2.163c-6.481,0.401-48.873,2.896-48.873,2.896l26.023,1.916
	c-13.668-0.396-27.062,1.682-27.062,1.682c3.766-0.315,33.689,2.523,33.689,2.523c-10.987,1.803-35.042-1.13-35.042-1.13
	l14.465,3.759l-11.516,0.911l8.505,2.357l-9.457,1.389l28.836,5.066c-6.785-1.108-30.761-4.309-30.761-4.309
	c8.603,5.882,31.518,8.222,31.518,8.222c-10.725,1.579-31.772-5.301-31.772-5.301c6.594,7.165,24.165,9.151,24.165,9.151
	c-8.104-0.004-25.199-4.202-25.199-4.202c3.39,5.416,21.625,10.208,21.625,10.208l-21.474-4.255
	c6.552,6.181,17.264,7.8,18.922,8.018c-4.509,3.893-7.271,6.054-7.271,6.054c35.232-22.689,72.979-79.992,72.979-79.992
	C136.948,163.469,117.651,156.208,117.651,156.208z"/>
<path fill="#53A546" d="M102.993,242.964c0,0-2.608,6.302-1.811,8.995l3.827-8.255l-0.395,13.408l2.493-15.216
	c0,0-0.385,16.78,2.345,21.413c0,0-0.627-18.161,0.632-21.726c0,0,0.093,15.244,2.129,22.05l0.687-4.195l2.474,6.205l0.711-24.269
	c0,0,0.72,19.657,2.834,23.243c0,0-0.202-22.132,1.135-28.24c0,0-1.167,18.131,2.712,26.055c0,0-1.932-15.01-0.769-21.419
	c0,0,1.359,14.372,4.748,19.79c0,0-1.608-10.102-1.011-15.124l2.258,7.517c0,0-2.986-16.126-1.819-21.188
	c0,0,2.077,19.613,5.557,25.854l-1.123-8.943l4.317,7.996c0,0-6.218-27.312-5.762-34.918c0,0,4.896,24.397,9.607,32.057
	c0,0-6.922-27.836-6.285-33.794c0,0,1.896,17.294,11.056,32.837c0,0-7.713-29.18-7.953-35.283c0,0,5.15,21.475,12.549,34.026
	l-7.797-27.978l10.057,22.43c0,0-10.888-35.233-10.5-36.92c0,0,9.795,21.979,16.708,33.374l-10.19-22.991l14.256,20.838
	l-8.732-18.838l12.152,19.948l-18.604-37.597l23.727,37.238l-21.152-40.584l11.403,18.341l-10.142-21.228l21.623,36.346
	l-18.693-37.744l23.203,37.017l-20.971-37.589l24.166,37.313l-8.989-16.591l12.534,15.567l-13.877-25.223
	c0,0,15.657,20.534,19.215,23.553l-10.572-18.606l11.037,13.697l-9.204-15.951l8.261,8.652c0,0-21.087-34.105-21.81-40.693
	l1.224-1.277c0,0,10.229,21.378,21.227,36.688l-5.111-10.015c0,0,7.918,10.751,12.882,15.487c0,0-26.594-43.105-26.735-46.365
	l0.302-1.834c0,0,19.169,36.211,29.624,45.902c0,0-26.591-42.435-28.977-49.164C169.679,167.044,111.079,237.574,102.993,242.964z"
	/>
<path fill="#3A7137" d="M168.596,170.906c0,0-9.15,15.316-15.13,21.595l10.606,15.646l-9.466-15.052l0.873-1.201l20.95,31.521
	l-19.599-32.911l1.045-2.253l19.584,28.868l-18.231-30.26l15,20.426l-14.477-21.552l17.894,21.311l-8.539-13.147l13.636,18.445
	l-19.72-30.776l4.396,4.774l-3.437-6.502l3.222-5.256l12.462,20.133l-12.068-21.146L168.596,170.906z"/>
<path fill="#315025" d="M156.769,184.698c0,0-20.673,0.458-29.393-0.592l26.027,2.589l-4.946,0.657l2.324,1.601
	c0,0-43.938-1.805-57.183-6.844c-13.242-5.037-0.832-0.408-0.832-0.408s19.606,8.121,35.766,7.719l17.483,1.84l2.283,1.863
	l-22.643,0.127c0,0,20.413,1.119,21.998,3.133L156.769,184.698z"/>
<path fill="#315025" d="M157.791,189.451l19.804,28.904c0,0-9.018-11.609-11.7-15.154c-2.684-3.549-9.065-12.697-9.065-12.697
	L157.791,189.451z"/>
<polygon fill="#315025" points="138.023,205.691 125.472,205.008 135.796,207.945 127.716,207.81 134.031,210.48 111.359,208.718 
	133.444,212 138.88,206.641 "/>
<polygon fill="#315025" points="124.504,220.712 111.953,220.037 122.276,222.972 114.196,222.834 120.511,225.503 97.839,223.743 
	119.925,227.025 125.361,221.664 "/>
<polygon fill="#315025" points="146.514,195.886 133.897,196.552 144.456,198.361 136.355,199.087 142.88,201.062 120.053,201.73 
	142.407,202.63 147.443,196.738 "/>
<path fill="#315025" d="M152.993,192.118c0,0-38.069,42.764-48.953,49.94c0,0,7.933-5.646,9.569-7.398l0.254,18.034l0.895-18.347
	l0.873,5.501l-0.252-6.205l2.949-2.542l0.188,17.414l2.137-19.754l1.8-1.719l0.21,3.874l1.439,8.224c0,0-1.418-11.958-1.028-13.309
	l2.359-2.031c0,0,2.447,15.465,3.211,18.018c0,0-2.161-18.244-2.164-19.26l3.601-3.945l4.092,16.246l-2.322-17.262l1.243-1.917
	l2.687,7.825l-1.476-9.543l1.473-1.775c0,0,3.846,11.556,4.275,12.033c0.43,0.475-3.359-12.993-3.359-12.993l1.08-0.929
	l8.322,23.416l-6.223-24.887l4.621,6.834l-3.313-8.637l1.704-1.638l5.847,10.173l-4.768-11.607l2.578,4.875l-1.465-6.003
	l6.993,8.845l-5.847-10.171l1.81,0.81l-0.566-2.725l5.112,6.917l-3.257-8.626l1.285-2.01l6.079,10.816l-5.028-11.046l1.182-0.006
	l8.055,12.663l-6.58-13.424L152.993,192.118z"/>
<path fill="#7CBC42" d="M133.811,223.682c0,0,4.521,17.226,7.134,22.918C140.945,246.6,134.532,233.706,133.811,223.682z"/>
<path fill="#7CBC42" d="M132.317,249.809c0,0-3.936-18.243-3.709-19.618C128.833,228.813,126.917,235.871,132.317,249.809z"/>
<path fill="#7CBC42" d="M125.304,255.51l-2.662-20.856C122.642,234.654,122.855,249.849,125.304,255.51z"/>
<path fill="#7CBC42" d="M136.623,219.908l2.59,8.922l-0.471-3.819l2.92,9.481l-1.835-8.896l5.218,19.161
	C145.045,244.757,137.167,225.353,136.623,219.908z"/>
<path fill="#7CBC42" d="M106.356,240.292c0,0,42.58-39.384,60.571-70.202l1.271-0.193
	C168.198,169.896,148.067,202.783,106.356,240.292z"/>
<path fill="#3A7137" d="M169.658,104.846c-9.022,16.271,0.261,52.149,0.261,52.149l-2.507-0.457l-6.449-41.997
	c-2.414,4.654,3.515,40.533,3.515,40.533c-3.04-3.783-7.642-50.152-7.642-50.152c-3.333,5.17,3.375,47.491,3.375,47.491
	l-0.977,0.894c-11.462-17.012-19.515-73.459-19.515-73.459c-1.429,7.295,1.951,32.984,1.951,32.984l-5.954-30.484
	c-0.71,9.726,6.764,51.973,6.764,51.973c-4.492-8.122-12.92-55.298-12.92-55.298c-4.319,13.963,11.971,64.085,11.971,64.085
	l-18.979-44.713l13.697,44.189L107.92,77.018c-0.011,11.195,22.675,63.679,22.675,63.679l-27.982-63.314
	c0.309,6.611,25.485,65.499,22.261,59.041c-3.357-6.719-28.957-58.338-28.957-58.338l12.522,34.181
	c-7.054-17.059-17.802-34.777-17.802-34.777c2.786,5.218,16.402,43.438,16.402,43.438c-8.08-12.494-19.079-45.031-19.079-45.031
	l4.371,20.676l-8.456-15.333l2.528,12.176l-8-12.596l11.994,38.142c-2.72-8.31-14.31-40.692-14.31-40.692
	c-1.606,13.392,10.175,42.482,10.175,42.482c-8.537-12.427-14.165-42.122-14.165-42.122c-4.55,10.994,4.89,34.049,4.89,34.049
	C71.645,102.606,64.86,78.374,64.86,78.374c-4.549,6.175,2.475,31.37,2.475,31.37L57.137,80.08
	c-3.02,10.729,2.882,25.247,3.797,27.395c-8.151-4.798-12.997-7.87-12.997-7.87c49.794,36.139,124.169,59.866,124.169,59.866
	C167.766,127.887,169.658,104.846,169.658,104.846z"/>
<path fill="#53A546" d="M59.784,107.248c0,0-9.771-1.774-12.534-0.1l13.059,2.797l-16.842,2.761l20.524-0.61
	c0,0-20.837,3.576-24.419,7.992c0,0,21.66-5.125,26.837-4.46c0,0-18.389,3.761-25.118,7.803l5.583-0.201l-5.615,4.348l29.382-4.94
	c0,0-22.817,5.476-25.531,8.717c0,0,25.927-5.447,33.898-5.364c0,0-21.981,2.938-28.568,9.113c0,0,16.202-5.655,24.393-5.858
	c0,0-15.782,4.851-19.75,9.782c0,0,10.562-4.083,16.714-4.6l-7.163,4.165c0,0,16.578-6.946,23.036-6.841
	c0,0-21.072,6.749-25.918,11.845l9.398-3.228l-6.285,6.291c0,0,26.962-12.73,35.757-13.976c0,0-24.533,10.689-30.19,17.191
	c0,0,26.9-13.385,33.852-14.063c0,0-18.164,5.881-29.951,18.528c0,0,27.627-14.235,34.204-15.853c0,0-20.776,10.014-30.193,19.958
	l25.962-13.786l-18.796,14.675c0,0,32.24-18.354,34.235-18.336c0,0-18.789,14.389-27.24,23.245l19.142-14.527l-14.875,17.679
	l15.332-11.997l-14.786,15.217l30.48-25.229l-27.659,29.513l32.239-27.741l-14.179,14.548l17.691-13.962l-27.851,27.095
	l30.433-24.612L110.749,178.4l29.153-26.207l-27.506,28.729l12.539-10.861l-10.054,13.458l19.083-16.626
	c0,0-13.865,17.056-15.312,20.418l13.717-12.162l-8.892,11.518l11.74-10.496l-5.21,8.288c0,0,25.617-24.357,31.888-26.365
	l1.62,0.811c0,0-17.545,13.104-28.303,24.977l7.684-6.031c0,0-7.381,8.324-10.021,12.986c0,0,32.265-30.028,35.399-30.825
	l1.869-0.118c0,0-28.644,23.059-34.045,32.821c0,0,31.526-29.499,37.384-32.929C173.482,159.786,71.896,115.863,59.784,107.248z"/>
<path fill="#3A7137" d="M169.438,159.639c0,0-17.948-4.938-26.422-9.124l-11.853,12.943l11.659-11.752l1.545,0.556l-23.364,24.831
	l25.259-23.879l2.647,0.483l-21.386,22.93l23.252-21.989l-14.924,17.303l16.231-17.065l-14.759,19.825l9.803-9.859l-13.039,15.035
	l23.221-22.934l-3.318,4.867l5.331-4.375l6.136,1.749l-15.63,14.63l16.734-14.497L169.438,159.639z"/>
<path fill="#315025" d="M152.128,151.925c0,0-7.878-20.171-10.127-29.736l6.94,27.024l-2.432-4.574l-0.818,2.576
	c0,0-16.024-48.409-16.229-66.952c-0.229-20.26,0.097-1.241,0.097-1.241s-0.477,27.199,7.035,45.625l4.936,18.459l-1.083,2.625
	l-9.335-23.385c0,0,7.177,21.486,5.685,23.465L152.128,151.925z"/>
<path fill="#315025" d="M147.668,153.874l-21.287,23.118c0,0,7.904-9.924,10.415-12.982c2.546-3.101,9.467-10.795,9.467-10.795
	L147.668,153.874z"/>
<polygon fill="#315025" points="122.876,138.282 117.842,124.812 119.422,136.495 115.776,127.903 115.829,135.229 106.406,109.395 
	113.88,134.956 122.232,139.363 "/>
<polygon fill="#315025" points="99.587,127.33 93.35,112.763 95.789,125.375 91.349,116.082 91.881,123.979 80.126,95.969 
	89.786,123.669 98.969,128.487 "/>
<polygon fill="#315025" points="136.868,144.6 131.007,131.979 133.444,143.121 129.3,135.104 129.934,142.152 118.959,117.98 
	128.064,142.025 136.341,145.688 "/>
<path fill="#315025" d="M143.235,149.99c0,0-65.662-30.228-81.588-41.648c0,0,12.224,8.31,15.359,9.829l-21.333,4.572l22.428-3.298
	l-5.95,2.308l7.171-1.751l4.785,2.801l-20.279,4.295l24.372-2.205l3.018,1.62l-4.33,1.13l-8.595,3.493
	c0,0,12.897-4.331,14.667-4.211l3.624,2.133c0,0-16.156,6.203-18.595,7.605c0,0,19.426-6.511,20.572-6.745l6.326,2.979
	l-15.888,7.972l17.919-6.326l2.738,0.873l-7.264,4.546l9.747-3.667l2.651,1.128c0,0-10.709,6.494-11.011,7.029
	c-0.301,0.537,12.487-6.299,12.487-6.299l1.511,0.897l-21.146,13.437l23.693-11.633l-5.214,6.097l7.734-5.182l2.492,1.338
	l-8.192,7.916l10.179-7.164l-4.053,3.587l5.717-2.738l-6.316,8.625l8.188-7.796l-0.108,1.928l2.625-1.137l-5.127,6.366l7.646-4.95
	l2.588,0.793l-8.751,7.995l9.389-7.045l0.452,1.112l-9.799,10.082l11.132-8.866L143.235,149.99z"/>
<path fill="#7CBC42" d="M101.18,137.968c0,0-16.531,8.5-21.279,12.379C79.901,150.347,90.473,140.978,101.18,137.968z"/>
<path fill="#7CBC42" d="M71.206,142.352c0,0,18.225-8.323,19.904-8.395C92.788,133.882,83.711,133.442,71.206,142.352z"/>
<path fill="#7CBC42" d="M60.213,136.247l22.36-7.762C82.573,128.485,65.143,132.255,60.213,136.247z"/>
<path fill="#7CBC42" d="M106.758,140.018l-8.421,4.622l3.917-1.328l-8.781,5.031l8.696-3.809l-17.954,9.394
	C84.215,153.927,101.075,141.793,106.758,140.018z"/>
<path fill="#7CBC42" d="M65.429,110.787c0,0,67.146,37.244,104.344,47.227l0.54,1.072
	C170.313,159.085,130.262,147.603,65.429,110.787z"/>
</svg>
