<?xml version="1.0" encoding="utf-8"?>
<!-- Generator: Adobe Illustrator 15.0.0, SVG Export Plug-In  -->
<!DOCTYPE svg PUBLIC "-//W3C//DTD SVG 1.1//EN" "http://www.w3.org/Graphics/SVG/1.1/DTD/svg11.dtd" [
	<!ENTITY ns_flows "http://ns.adobe.com/Flows/1.0/">
]>
<svg version="1.1"
	 xmlns="http://www.w3.org/2000/svg" xmlns:xlink="http://www.w3.org/1999/xlink" xmlns:a="http://ns.adobe.com/AdobeSVGViewerExtensions/3.0/"
	 x="0px" y="0px" width="600px" height="600px" viewBox="0 0 600 600"
	 overflow="visible" enable-background="new 0 0 600 600" xml:space="preserve">
<defs>
</defs>
<circle id="circle3007_1_" fill="#FFFFFF" stroke="#1B7B2A" stroke-width="30.0002" cx="282.429" cy="282.429" r="267.429"/>
<path id="path3009_1_" d="M84.854,341.515v68.604h326.32v-68.604H84.854z M420.917,410.119h17.076v-68.604h-17.076V410.119z
	 M448.766,410.119h17.076v-68.604h-17.076V410.119z M256.802,126.828c0,31.132,16.467,58.161,40.296,66.167
	c7.378,2.477,7.496,2.323,7.496,8.24c0,3.079-0.173,4.619-0.173,7.697c0,33.137,15.74,46.238,29.576,55.229l32.877,0.674
	c34.802,0.715,37.457,1.113,44.299,6.648c3.955,3.199,7.738,10.577,8.818,17.193c0.509,3.12,0.928,13.224,0.928,22.454
	c0,9.228,0.259,17.12,0.575,17.535c0.315,0.416,4.204,0.758,8.639,0.758h8.063v-20.191c0-21.93-0.836-28.675-4.832-39.036
	c-2.986-7.741-9.998-16.777-16.015-20.64c-10.001-6.418-11.611-6.674-46.54-7.413c-35.727-0.756-35.787-0.768-41.328-8.175
	c-4.934-6.597-7.53-15.991-7.53-25.565c0-12.219,4.733-19.55,4.733-24.437c0-21.707-44.26,3.614-51.941-50.672
	c-0.322-2.276-0.479-4.634-0.479-7.03c0-24.5,16.445-45.402,27.408-45.402c5.476,0,5.993-2.726,5.993-6.814
	c0-2.59,0.016-4.806,0.016-6.696c0-7.937-0.278-10.132-3.161-10.132C285.434,57.219,256.813,80.283,256.802,126.828z
	 M325.455,80.293v21.41c0,0.001,41.435,3.722,41.433,51.482c-0.086,28.196-10.593,37.086-10.593,45.998
	c0,9.439,4.141,11.065,23.469,11.065c20.426,0,27.485,1.505,37.507,7.996c12.64,8.186,22.573,23.896,27.6,43.646
	c2.2,8.644,2.323,10.366,2.587,35.754c0.153,14.668,0.472,27.82,0.708,29.225c0.412,2.443,0.812,2.555,9.149,2.555h8.717
	l-0.404-28.66c-0.368-26.247-0.591-29.59-2.64-39.744c-7.627-37.793-28.974-64.929-56.527-71.854
	c-3.534-0.888-10.647-1.615-15.804-1.615c-8.079,0-9.912-0.6-9.912-1.501c0-6.162,4.232-12.324,4.232-30.809
	c0-50.638-34.505-75.334-54.37-75.334C330.092,79.905,329.573,79.948,325.455,80.293z"/>
</svg>
